<?xml version="1.0" standalone="no"?>
<!DOCTYPE svg PUBLIC "-//W3C//DTD SVG 1.1//EN" "http://www.w3.org/Graphics/SVG/1.1/DTD/svg11.dtd" >
<svg xmlns="http://www.w3.org/2000/svg">
<metadata>
Created by FontPrep 20130207 at Thu Jul 17 16:05:39 2014
 By Steven Poxson
</metadata>
<defs>
<font id="480e38d5f4343f1b2ab99fb43ba46247" horiz-adv-x='1024' >
  <font-face 
    font-family="wireWAXMT"
    font-weight="400"
    font-stretch="normal"
    units-per-em="2048"
    panose-1="0 0 0 0 0 0 0 0 0 0"
    ascent="1638"
    descent="-410"
    x-height="946"
    cap-height="1544"
    bbox="-358 -618 2308 2060"
    underline-thickness="102"
    underline-position="-112"
    unicode-range="U+0020-F002"
  />
<missing-glyph 
 />
    <glyph glyph-name=".notdef" 
 />
    <glyph glyph-name="glyph1" horiz-adv-x="0" 
 />
    <glyph glyph-name="glyph2" 
 />
    <glyph glyph-name="space" unicode=" " 
 />
    <glyph glyph-name="space" unicode="&#xa0;" 
 />
    <glyph glyph-name="exclam" unicode="!" horiz-adv-x="655" 
d="M279 293v1251h98v-1251h-98zM412 61.5q0 -34.5 -25 -58t-59.5 -23.5t-59 23.5t-24.5 58t24.5 59t59.5 24.5v2q35 -2 59.5 -26.5t24.5 -59z" />
    <glyph glyph-name="quotedbl" unicode="&#x22;" horiz-adv-x="569" 
d="M352 1544h99l-23 -491h-55zM119 1544h98l-22 -491h-56z" />
    <glyph glyph-name="numbersign" unicode="#" horiz-adv-x="1269" 
d="M809 897h-279l-49 -332h279zM1098 565v-98h-258l-76 -467h-94l73 467h-276l-68 -467h-98l68 467h-248v98h262l47 332h-252v98h266l66 435h102l-65 -435h278l66 435h102l-67 -435h225v-98h-242l-53 -332h242z" />
    <glyph glyph-name="dollar" unicode="$" horiz-adv-x="1269" 
d="M356 1180q0 -104 65.5 -161t111.5 -81t59.5 -31.5t25.5 -13.5v573q-113 -2 -187.5 -92t-74.5 -194zM1001 424q0 116 -69.5 178t-120.5 88t-68 33l-32 -641q123 29 206.5 127.5t83.5 214.5zM618 76v710q-3 -3 -13 4t-85 43q-74 37 -168 114t-94 233t99.5 263t260.5 120
v217h93v-219q96 -14 181 -70.5t132 -144.5l-76 -60q-39 63 -99.5 116.5t-137.5 61.5v-612q2 -4 5 -5t12 -6t87.5 -40.5t181.5 -122t103 -251.5t-116 -290t-273 -153v-232h-93v228q-162 4 -277.5 91t-170.5 240l84 41q43 -117 134 -197.5t216 -78.5h14z" />
    <glyph glyph-name="percent" unicode="%" horiz-adv-x="1359" 
d="M143 1253q0 -90 68 -153.5t158 -63.5t157.5 63.5t67.5 153.5t-67.5 153.5t-157.5 63.5v3q-90 -2 -158 -66t-68 -154zM680 1252q0 -132 -91 -217t-220 -85t-220.5 85t-91.5 217t90.5 218t221.5 86v3q131 -2 221 -88.5t90 -218.5zM766 287q0 -90 67.5 -153.5t157.5 -63.5
t158 63.5t68 153.5t-68 153.5t-158 63.5v2q-90 -2 -157.5 -65.5t-67.5 -153.5zM1303 286q0 -132 -91.5 -216t-220.5 -84t-220 84t-91 216t90 218t221 86v2q131 -2 221.5 -88t90.5 -218zM1102 1579l67 -35l-917 -1579l-64 37z" />
    <glyph glyph-name="ampersand" unicode="&#x26;" horiz-adv-x="1314" 
d="M451 1274q0 -72 27.5 -123t45.5 -77t18.5 -26t6.5 -10t17.5 -26.5t21.5 -32.5q30 25 61 45q70 51 128.5 108.5t58.5 144.5t-54.5 144.5t-134.5 57.5v2q-84 -2 -140 -68.5t-56 -138.5zM143 381q0 -127 85 -224.5t221 -97.5q29 -1 101 15q126 27 327 190q23 16 43 33.5
t41 34.5l-390 528l-98 -65q-18 -14 -85.5 -56t-156 -136.5t-88.5 -221.5zM440 -31q-160 0 -277.5 119t-117.5 289t115.5 287.5t253.5 207.5q27 16 51 32t49 32q-8 12 -85 111t-77 225t90 212.5t211 86.5t201 -84t80 -209t-88 -211t-201 -164l381 -518l197 215l75 -41
l-215 -246l236 -313h-107l-194 256q-129 -111 -273.5 -199t-304.5 -88z" />
    <glyph glyph-name="quotesingle" unicode="'" horiz-adv-x="454" 
d="M178 1544h98l-22 -491h-55z" />
    <glyph glyph-name="parenleft" unicode="(" horiz-adv-x="491" 
d="M227 619q0 -464 129 -930l-75 -51q-76 197 -117 507q-29 251 -29 482q1 231 23 410q46 362 123 558v2l75 -53q-129 -461 -129 -925z" />
    <glyph glyph-name="parenright" unicode=")" horiz-adv-x="491" 
d="M264 615q0 477 -129 927v2l76 53q79 -204 112 -474t33 -503q0 -232 -23 -422q-43 -356 -122 -560l-76 51q129 449 129 926z" />
    <glyph glyph-name="asterisk" unicode="*" horiz-adv-x="1267" 
d="M592 1237l-8 307h100l-8 -307l291 102l30 -96l-295 -88l189 -244l-82 -59l-174 254l-176 -254l-80 57l186 246l-295 88l31 96z" />
    <glyph glyph-name="plus" unicode="+" horiz-adv-x="1269" 
d="M586 573v476h98v-476h475v-98h-475v-475h-98v475h-475v98h475z" />
    <glyph glyph-name="comma" unicode="," 
d="M313 152l93 -29l-170 -463l-62 23z" />
    <glyph glyph-name="hyphen" unicode="-" horiz-adv-x="389" 
d="M0 700h389v-92h-389v92z" />
    <glyph glyph-name="period" unicode="." 
d="M401 61.5q0 -34.5 -24.5 -58t-59 -23.5t-59.5 23.5t-25 58t25 59t59 24.5v2q35 -2 59.5 -26.5t24.5 -59z" />
    <glyph glyph-name="slash" unicode="/" horiz-adv-x="1310" 
d="M1167 1690l72 -37l-1092 -1944l-75 39z" />
    <glyph glyph-name="zero" unicode="0" horiz-adv-x="1269" 
d="M1098 752q0 346 -146.5 532t-316.5 186t-292.5 -156t-146.5 -316t-24 -250t29 -207q41 -176 146.5 -323.5t287.5 -147.5v2q182 -2 287.5 145.5t140.5 298.5t35 236zM1196 804q0 -383 -170 -603.5t-391 -220.5t-391 220.5t-170 572.5q0 351 170 570.5t391 219.5v2
q221 -2 353 -173t179 -376q29 -127 29 -212z" />
    <glyph glyph-name="one" unicode="1" horiz-adv-x="1269" 
d="M631 1452h-244l47 92h295v-1544h-98v1452z" />
    <glyph glyph-name="two" unicode="2" horiz-adv-x="1269" 
d="M272 1116v-10l-98 2q4 82 21.5 154t74.5 136q146 165 353 165t342 -129t135 -324q0 -135 -74 -248.5t-125 -169.5t-64.5 -72t-27.5 -30l-449 -498h734v-92h-953l576 633q284 284 284 478q0 157 -107.5 258t-259.5 101t-257 -99t-105 -255z" />
    <glyph glyph-name="three" unicode="3" horiz-adv-x="1269" 
d="M618 756v94q137 2 232.5 90t95.5 222t-90 221t-219 87t-208 -79.5t-87 -212.5l-98 2q12 174 115.5 278.5t276.5 104.5t290.5 -115t117.5 -283q0 -119 -61 -215t-170 -143q117 -45 185.5 -149.5t68.5 -225.5q0 -193 -129.5 -322.5t-313.5 -129.5t-312 109.5t-126 287.5
l99 2q12 -135 99 -222t230 -87t249 106t106 254t-102.5 237t-248.5 89z" />
    <glyph glyph-name="four" unicode="4" horiz-adv-x="1269" 
d="M858 385v913h-12l-641 -901v-12h653zM956 385h218v-92h-218v-293h-98v293h-833v12l919 1292h12v-1212z" />
    <glyph glyph-name="five" unicode="5" horiz-adv-x="1269" 
d="M559 1049q223 0 373.5 -153.5t150.5 -381.5t-161.5 -381t-395.5 -153q-139 0 -261 67.5t-195 185.5l90 39q59 -92 159.5 -147t208.5 -55q195 0 326 130t131 319t-134 313t-316 124q-133 0 -236 -69l201 657h587v-92h-516l-129 -418q54 15 117 15z" />
    <glyph glyph-name="six" unicode="6" horiz-adv-x="1269" 
d="M1085 517q0 185 -133 317.5t-318 132.5t-317.5 -132.5t-132.5 -317.5t132.5 -316t318.5 -131v2q184 -2 317 129t133 316zM645 1059q223 0 381 -161t158 -373t-154 -379q-154 -166 -387 -166t-395 154.5t-162 381.5q0 163 86 301q18 24 27 39l497 709l80 -60l-340 -481
l4 -4q102 39 205 39z" />
    <glyph glyph-name="seven" unicode="7" horiz-adv-x="1269" 
d="M143 1452v92h1121l-1106 -1560l-76 59l999 1409h-938z" />
    <glyph glyph-name="eight" unicode="8" horiz-adv-x="1269" 
d="M319 1157q0 -129 92.5 -220t222.5 -91t223 91t93 220t-94 221t-221 92v3q-129 -2 -222.5 -94.5t-93.5 -221.5zM285 411.5q0 -143.5 103.5 -242.5t245.5 -99t246.5 99t104.5 242.5t-104.5 243t-245.5 99.5v2q-143 -2 -246.5 -101.5t-103.5 -243zM1083 401
q0 -184 -133 -302.5t-314 -118.5t-315.5 118.5t-134.5 302.5q0 281 252 402q-100 49 -158.5 146.5t-58.5 205.5q0 176 120 292t295 116t294 -116t119 -292q0 -109 -58.5 -206t-159.5 -146q252 -119 252 -402z" />
    <glyph glyph-name="nine" unicode="9" horiz-adv-x="1269" 
d="M184 1025q0 -185 134.5 -316t318.5 -131t316 131t132 316t-132 315t-316 130v3q-184 -2 -318.5 -132.5t-134.5 -315.5zM625 485q-221 0 -380 160t-159 383t164 379t391 156t385 -158t158 -389q0 -168 -113 -330l-498 -702l-79 59l342 481l-5 4q-92 -43 -206 -43z" />
    <glyph glyph-name="colon" unicode=":" 
d="M401 880.5q0 -34.5 -24.5 -59t-59 -24.5t-59.5 24.5t-25 59t25 59.5t59 25v2q35 -2 59.5 -27t24.5 -59.5zM401 61.5q0 -34.5 -24.5 -58t-59 -23.5t-59.5 23.5t-25 58t25 59t59 24.5v2q35 -2 59.5 -26.5t24.5 -59z" />
    <glyph glyph-name="semicolon" unicode=";" 
d="M414 880.5q0 -34.5 -24.5 -59t-59.5 -24.5t-59.5 24.5t-24.5 59t24.5 59.5t59.5 25v2q35 -2 59.5 -27t24.5 -59.5zM313 152l93 -29l-170 -463l-62 23z" />
    <glyph glyph-name="less" unicode="&#x3c;" horiz-adv-x="1269" 
d="M217 524l942 -440v-94l-1048 481v109l1048 456v-94z" />
    <glyph glyph-name="equal" unicode="=" horiz-adv-x="1269" 
d="M1159 748v-99h-1048v99h1048zM1159 399v-98h-1048v98h1048z" />
    <glyph glyph-name="greater" unicode="&#x3e;" horiz-adv-x="1269" 
d="M111 84l942 440l-942 418v94l1048 -456v-109l-1048 -481v94z" />
    <glyph glyph-name="question" unicode="?" horiz-adv-x="1005" 
d="M135 1233q0 147 111.5 238.5t266.5 91.5t256 -103.5t101 -271.5t-93 -245t-218 -109t-202.5 -72t-77.5 -148t64.5 -170.5t166.5 -62.5t159.5 72.5t55.5 164.5v3h98v-19q0 -133 -88 -223t-226 -90t-233.5 87t-95.5 223t84 205.5t216 103.5t212 86.5t80 181.5t-75.5 211.5
t-193.5 82.5t-195 -74.5t-75 -185.5q0 -60 11 -108l-94 2q-15 77 -15 129zM582 61.5q0 -34.5 -25 -58t-59.5 -23.5t-59 23.5t-24.5 58t24.5 59t59.5 24.5v2q35 -2 59.5 -26.5t24.5 -59z" />
    <glyph glyph-name="at" unicode="@" horiz-adv-x="1638" 
d="M684 393h6v2q86 0 169.5 69.5t99.5 116t20 56.5l96 303q4 8 4 28t-17 64q-17 43 -68.5 84t-127.5 41q-119 0 -232.5 -130.5t-137 -247.5t-23.5 -158q0 -88 54.5 -158t156.5 -70zM1470 909q0 256 -192.5 412t-423.5 156q-285 0 -485.5 -215t-200.5 -500t207 -492t483 -207
q170 0 321.5 71t237.5 208l115 2q-86 -164 -262 -264t-412 -100q-328 0 -552 233t-224 562t228.5 558.5t531.5 229.5t508.5 -187.5t205.5 -474.5q0 -215 -142 -404.5t-335 -189.5q-53 0 -95 25.5t-58 75.5q-122 -101 -260 -101t-208.5 87t-70.5 214q0 72 16 150
q41 182 166 333.5t314 151.5q72 0 137 -36t108 -101v2l31 96h90l-211 -663l-6 -25q-4 -16 -8 -31.5t-4 -29.5q5 -62 88 -62q33 0 53 10q92 29 200.5 175.5t108.5 330.5z" />
    <glyph glyph-name="A" unicode="A" horiz-adv-x="1312" 
d="M958 600l-301 746l-303 -746h604zM995 508h-678l-206 -508h-101l647 1595l646 -1595h-101z" />
    <glyph glyph-name="B" unicode="B" horiz-adv-x="1157" 
d="M264 844h170q6 -2 8 -2h17q147 0 189 21q120 60 148.5 132t28.5 150q0 177 -127 256q-65 44 -196 49h-68l-170 2v-608zM264 92h236q4 -2 8 -2h72q147 0 227 54q160 107 160 280q0 84 -58 193.5t-284 127.5q-93 5 -144 5l-217 2v-660zM1065 428q0 -196 -143 -319
q-82 -70 -170.5 -89.5t-190.5 -19.5h-395v1544h309q88 -2 169 -16.5t152 -75.5q128 -110 128 -321q0 -212 -179 -314q143 -29 231.5 -135.5t88.5 -253.5z" />
    <glyph glyph-name="C" unicode="C" horiz-adv-x="1513" 
d="M881 1563h22q133 -4 262 -57l228 -277q-74 88 -211.5 164.5t-307.5 76.5q-289 0 -495.5 -213t-206.5 -497q0 -135 55.5 -258t151.5 -219q94 -88 219 -148.5t256 -64.5h34q165 0 305 80.5t200 154.5v-133q-227 -192 -514 -192q-322 0 -563.5 232t-241.5 559t239.5 559.5
t567.5 232.5z" />
    <glyph glyph-name="D" unicode="D" horiz-adv-x="1335" 
d="M264 92h178q152 -2 280 37t232 142q210 207 211 497q0 147 -57 280.5t-166 233.5q-111 100 -232.5 134t-267.5 34l-178 2v-1360zM166 0v1544h278q170 -2 308.5 -40t262.5 -154t186.5 -266t62.5 -313t-60.5 -309t-182.5 -264t-263.5 -158t-313.5 -40h-278z" />
    <glyph glyph-name="E" unicode="E" horiz-adv-x="1038" 
d="M903 1452h-639v-561h623v-92h-623v-707h639v-92h-737v1544h737v-92z" />
    <glyph glyph-name="F" unicode="F" horiz-adv-x="909" 
d="M788 1452h-524v-561h510v-92h-510v-799h-98v1544h622v-92z" />
    <glyph glyph-name="G" unicode="G" horiz-adv-x="1687" 
d="M866 -20q-322 0 -557 232t-235 558t236.5 559.5t568.5 233.5q211 0 379.5 -97.5t289.5 -263.5l-80 -61q-102 152 -254.5 240.5t-341.5 88.5q-283 0 -491.5 -210.5t-208.5 -492.5t206 -489.5t494 -207.5q247 0 458 174q97 80 139 180t47 225l-553 2v92h651v-38
q0 -133 -33 -253t-133 -229t-246.5 -172t-300.5 -71h-35z" />
    <glyph glyph-name="H" unicode="H" horiz-adv-x="1466" 
d="M264 889h938v655h98v-1544h-98v797h-938v-797h-98v1544h98v-655z" />
    <glyph glyph-name="I" unicode="I" horiz-adv-x="430" 
d="M264 1544v-1544h-98v1544h98z" />
    <glyph glyph-name="J" unicode="J" horiz-adv-x="446" 
d="M182 1544h99v-1515q0 -145 -51.5 -249t-221.5 -104q-82 0 -150.5 46.5t-103.5 121.5l72 56q29 -55 80 -93t110 -38q96 0 131 69.5t35 92.5v1613z" />
    <glyph glyph-name="K" unicode="K" horiz-adv-x="1165" 
d="M264 0h-98v1544h98v-721l733 721h131l-755 -743l803 -801h-129l-742 737l-41 -41v-696z" />
    <glyph glyph-name="L" unicode="L" horiz-adv-x="669" 
d="M264 1544v-1452h393v-92h-491v1544h98z" />
    <glyph glyph-name="M" unicode="M" horiz-adv-x="1837" 
d="M1724 0l-264 1278h-4l-538 -1329l-537 1329h-4l-264 -1278h-95l332 1595l568 -1405l569 1405l332 -1595h-95z" />
    <glyph glyph-name="N" unicode="N" horiz-adv-x="1726" 
d="M1561 1544v-1595l-1297 1378v-1327h-98v1565l1296 -1368v1347h99z" />
    <glyph glyph-name="O" unicode="O" horiz-adv-x="1748" 
d="M172 771q0 -286 207 -493.5t495 -207.5t495.5 207.5t207.5 493.5t-208 492.5t-495 206.5v3q-289 -2 -495.5 -209t-206.5 -493zM1675 770q0 -326 -237.5 -558t-563 -232t-563 232t-237.5 558t236.5 559.5t563.5 233.5v2q326 -2 563.5 -235.5t237.5 -559.5z" />
    <glyph glyph-name="P" unicode="P" horiz-adv-x="966" 
d="M264 825h178q174 -5 272 84q99 89 99 230q0 72 -28.5 139.5t-82.5 107.5t-117 52t-81 12h-78l-162 2v-627zM264 0h-98v1544h272q90 -2 176 -16.5t158 -74.5q139 -116 139 -318q0 -105 -38.5 -184t-92.5 -125q-99 -84 -272 -93q-18 -2 -22 -2h-48l-174 2v-733z" />
    <glyph glyph-name="Q" unicode="Q" horiz-adv-x="1748" 
d="M1577 758q0 291 -201.5 501.5t-493.5 210.5t-501 -206.5t-209 -495.5t209 -493.5t500 -204.5q226 0 430 161l-385 402h139l313 -340q199 212 199 465zM74 770q0 330 237.5 561.5t563.5 231.5t563 -231.5t237 -546.5t-225 -568l203 -217h-133l-140 164
q-190 -161 -442 -182l-64 -2q-330 0 -565 230t-235 560z" />
    <glyph glyph-name="R" unicode="R" horiz-adv-x="999" 
d="M264 823h125q72 -2 142.5 8.5t127.5 61.5q109 89 109 244q0 86 -40 163.5t-124 114.5q-62 30 -142 33q-80 2 -134 2l-64 2v-629zM264 731v-731h-98v1544h192q94 -2 184.5 -12t168.5 -68q155 -105 155 -319q0 -213 -124 -315t-317 -101l505 -729h-113l-504 731h-49z" />
    <glyph glyph-name="S" unicode="S" horiz-adv-x="1114" 
d="M950 1346v2l-1 -1q0 -1 1 -1zM567 1470q-125 0 -208 -87t-83 -198t79 -178.5t200 -119.5l295 -152q176 -114 176 -308t-147.5 -320.5t-322.5 -126.5t-295 90t-173 239l86 41q49 -125 141.5 -202.5t238.5 -77.5t260 105.5t114 258.5q0 104 -71 167t-124 89t-74.5 36.5
t-42.5 21.5l-278 149q-160 95 -160 270q0 176 110.5 286t284.5 110q117 -1 219 -59t157 -157l-68 -57q-112 180 -314 180z" />
    <glyph glyph-name="T" unicode="T" horiz-adv-x="921" 
d="M510 1452v-1452h-98v1452h-400v92h897v-92h-399z" />
    <glyph glyph-name="U" unicode="U" horiz-adv-x="1351" 
d="M152 580v964h98v-1001q2 -88 15.5 -173.5t58.5 -143.5q80 -105 239 -142q51 -14 114 -14t121 15q152 39 224 134q75 97 79 288q1 52 1 57v980h98v-962q0 -121 -13 -224.5t-91 -199.5q-74 -82 -177 -127t-173 -48t-141 0t-173 48t-176 127q-78 96 -91 199.5t-13 222.5z
" />
    <glyph glyph-name="V" unicode="V" horiz-adv-x="1136" 
d="M109 1544l458 -1319h4l457 1319h98l-561 -1595l-555 1595h99z" />
    <glyph glyph-name="W" unicode="W" horiz-adv-x="2263" 
d="M123 1544l434 -1327l578 1405l577 -1405l428 1327h98l-520 -1595l-590 1427l-587 -1427l-516 1595h98z" />
    <glyph glyph-name="X" unicode="X" horiz-adv-x="1011" 
d="M446 788l-405 756h109l354 -663l354 663h109l-404 -756l424 -788h-106l-377 698l-373 -698h-106z" />
    <glyph glyph-name="Y" unicode="Y" horiz-adv-x="1144" 
d="M621 0h-99v659l-514 885h109l454 -782l455 782h109l-514 -885v-659z" />
    <glyph glyph-name="Z" unicode="Z" horiz-adv-x="1163" 
d="M1112 92v-92h-1087l942 1452h-852v92h1024l-942 -1452h915z" />
    <glyph glyph-name="bracketleft" unicode="[" horiz-adv-x="614" 
d="M231 1440v-1751h250v-105h-348v1960h348v-104h-250z" />
    <glyph glyph-name="backslash" unicode="\" horiz-adv-x="1310" 
d="M72 1653l71 37l1096 -1651l-76 -39z" />
    <glyph glyph-name="bracketright" unicode="]" horiz-adv-x="614" 
d="M383 -311v1751h-250v104h348v-1960h-348v105h250z" />
    <glyph glyph-name="asciicircum" unicode="^" horiz-adv-x="1269" 
d="M207 616h-96l471 928h106l471 -928h-94l-430 836z" />
    <glyph glyph-name="underscore" unicode="_" horiz-adv-x="1024" 
d="M1024 -385h-1024v154h1024v-154z" />
    <glyph glyph-name="grave" unicode="`" horiz-adv-x="641" 
d="M154 1423l125 39l206 -301l-77 -35z" />
    <glyph glyph-name="a" unicode="a" horiz-adv-x="1146" 
d="M158 473q0 -158 100 -284t277 -126t272.5 127t95.5 294t-103.5 281t-275.5 114v2q-162 -2 -264 -126t-102 -282zM989 946v-946h-92v170h-4q-45 -80 -141 -135t-220 -55q-215 0 -340.5 145t-125.5 352t124.5 347.5t337.5 140.5q109 0 207.5 -47.5t157.5 -137.5l4 2v164h92
z" />
    <glyph glyph-name="b" unicode="b" horiz-adv-x="1146" 
d="M989 474q0 159 -102.5 282t-274.5 123t-270 -117t-98 -285t99 -291t273 -123v3q174 -2 273.5 123.5t99.5 284.5zM158 0v1690h92v-908h4q59 88 157.5 135.5t206.5 47.5q213 0 338 -140.5t125 -347.5t-126 -352t-341 -145q-122 0 -218.5 55t-141.5 133l-4 2v-170h-92z" />
    <glyph glyph-name="c" unicode="c" horiz-adv-x="976" 
d="M560 879q-179 0 -290.5 -122t-111.5 -284t110.5 -286t278.5 -124q102 0 193 46.5t155 123.5v-122q-143 -131 -349 -131t-343 143t-137 350t139 349.5t348 142.5q92 0 176 -29l154 -209q-144 152 -323 152z" />
    <glyph glyph-name="d" unicode="d" horiz-adv-x="1146" 
d="M903 484q0 167 -103.5 281t-270.5 114t-269 -124t-102 -282t100 -284t272 -126v3q182 -2 277.5 124.5t95.5 293.5zM897 0v170h-4q-45 -80 -141 -135t-220 -55q-215 0 -340.5 145t-125.5 352t124.5 347.5t337.5 140.5q109 0 207.5 -47.5t157.5 -137.5l4 2v908h92v-1690
h-92z" />
    <glyph glyph-name="e" unicode="e" horiz-adv-x="1044" 
d="M528 879q-144 0 -251 -98q-106 -98 -119 -230h729q-16 129 -115.5 228.5t-243.5 99.5zM158 465v-16q0 -174 108.5 -280t270.5 -106q111 0 196.5 60.5t136.5 155.5l78 -43q-63 -125 -173.5 -190.5t-250.5 -65.5q-211 0 -334.5 146t-123.5 346t125.5 346.5t336.5 146.5
q212 -1 332 -149t119 -351h-821z" />
    <glyph glyph-name="f" unicode="f" horiz-adv-x="491" 
d="M412 1628q-96 0 -129 -70t-33 -95v-517h237v-86h-237v-860h-92v860h-105v86h105v424q0 165 35 225q69 119 213 119q46 0 81 -14v-82l-24 2q-24 8 -51 8z" />
    <glyph glyph-name="g" unicode="g" horiz-adv-x="1161" 
d="M172 473q0 -158 100.5 -284t277.5 -126t272.5 127t95.5 294t-103.5 281t-275.5 114v2q-162 -2 -264.5 -126t-102.5 -282zM559 965q215 0 348 -185l4 2v164h93v-901q0 -109 -13.5 -208t-80.5 -191t-166 -138.5t-212 -46.5q-186 0 -321 105.5t-145 300.5h92
q8 -147 115.5 -233.5t250.5 -86.5q208 0 303 142q55 82 69.5 172t14.5 184v119h-4q-63 -86 -161.5 -135t-206.5 -49q-205 0 -332 147t-127 349t132 345.5t347 143.5z" />
    <glyph glyph-name="h" unicode="h" horiz-adv-x="1003" 
d="M158 1690h92v-891h4q41 76 114.5 121t166.5 45q182 0 246.5 -106.5t64.5 -289.5v-569h-92v571q0 125 -36 216.5t-193 91.5t-216 -116.5t-59 -153.5v-609h-92v1690z" />
    <glyph glyph-name="i" unicode="i" horiz-adv-x="479" 
d="M324 1259.5q0 -34.5 -25 -59t-59.5 -24.5t-59 24.5t-24.5 59t24.5 59t59.5 24.5v3q35 -2 59.5 -27t24.5 -59.5zM285 946v-946h-92v946h92z" />
    <glyph glyph-name="j" unicode="j" horiz-adv-x="479" 
d="M324 1259.5q0 -34.5 -25 -59t-59.5 -24.5t-59 24.5t-24.5 59t24.5 59t59.5 24.5v3q35 -2 59.5 -27t24.5 -59.5zM285 946v-1499h-92v1499h92z" />
    <glyph glyph-name="k" unicode="k" horiz-adv-x="874" 
d="M250 1690v-1145l389 401h119l-398 -409l531 -537h-121l-469 473l-51 -53v-420h-92v1690h92z" />
    <glyph glyph-name="l" unicode="l" horiz-adv-x="407" 
d="M250 1690v-1690h-92v1690h92z" />
    <glyph glyph-name="m" unicode="m" horiz-adv-x="1484" 
d="M250 946v-119h4q33 63 97.5 100.5t147.5 37.5t152.5 -44t106.5 -128q39 84 112.5 128t163.5 44q182 0 237.5 -108.5t55.5 -264.5v-592h-92v606q0 106 -34 189.5t-172 83.5t-187 -98.5t-54 -215.5v-565h-92v588q0 109 -37 200t-165 91t-186 -97t-58 -264v-518h-92v946h92z
" />
    <glyph glyph-name="n" unicode="n" horiz-adv-x="1003" 
d="M250 946v-147h4q41 76 114.5 121t166.5 45q182 0 246.5 -106.5t64.5 -289.5v-569h-92v571q0 125 -36 216.5t-193 91.5t-216 -116.5t-59 -153.5v-609h-92v946h92z" />
    <glyph glyph-name="o" unicode="o" horiz-adv-x="1120" 
d="M158 470q0 -163 112.5 -285t283.5 -122t290 117t119 291t-118 291t-294 117v2q-168 -2 -280.5 -125t-112.5 -286zM1055 471q0 -211 -144.5 -351t-351.5 -140t-350 144t-143 347t143 348.5t348 145.5v2q209 -2 353.5 -143.5t144.5 -352.5z" />
    <glyph glyph-name="p" unicode="p" horiz-adv-x="1146" 
d="M244 453q0 -168 103.5 -279t271.5 -111t269 120t101 281t-99 288t-274 127v2q-180 -2 -276 -131t-96 -297zM250 946v-170h4q45 76 142 132.5t218 56.5q217 0 342 -147.5t125 -354.5t-125 -345t-338 -138q-109 0 -207 46t-157 136l-4 2v-717h-92v1499h92z" />
    <glyph glyph-name="q" unicode="q" horiz-adv-x="1146" 
d="M158 453q0 -168 103.5 -279t271.5 -111t269 120t101 281t-99 288t-274 127v2q-180 -2 -276 -131t-96 -297zM989 946v-1499h-92v717h-4q-57 -92 -156.5 -138t-208.5 -46q-213 0 -337.5 138t-124.5 345t124.5 354.5t341.5 147.5q124 0 220 -56.5t141 -134.5l4 2v170h92z
" />
    <glyph glyph-name="r" unicode="r" horiz-adv-x="569" 
d="M444 879q-106 0 -150 -88t-44 -121v-670h-92v946h92v-123h4q65 142 205 142q52 0 73 -10.5t27 -12.5l-49 -80q-51 17 -66 17z" />
    <glyph glyph-name="s" unicode="s" horiz-adv-x="768" 
d="M389 879h-6q-57 -2 -106.5 -45t-49.5 -110t54.5 -100.5t96.5 -49.5t54 -21t62 -23t122 -73.5t72 -185.5t-89 -210.5t-212 -80.5t-212 66.5t-118 180.5l90 31q27 -86 84.5 -140.5t149.5 -54.5t153.5 62.5t61.5 151t-58 126t-153.5 70.5t-172.5 89t-77 164t78 173.5
t180 65.5l33 -2q66 -10 124 -50t85 -98l-80 -41q-23 47 -67 76t-99 29z" />
    <glyph glyph-name="t" unicode="t" horiz-adv-x="428" 
d="M260 860v-860h-92v860h-105v86h105v338h92v-338h166v-86h-166z" />
    <glyph glyph-name="u" unicode="u" horiz-adv-x="966" 
d="M143 334v612h93v-534q0 -139 38.5 -244t208.5 -105t209 104.5t39 242.5v536h92v-579q0 -70 -7 -137.5t-51 -125.5t-112.5 -88t-118.5 -33t-101 0q-50 3 -118.5 32.5t-112.5 87.5t-51.5 126t-7.5 105z" />
    <glyph glyph-name="v" unicode="v" horiz-adv-x="886" 
d="M104 946l342 -780l336 780h95l-433 -997l-434 997h94z" />
    <glyph glyph-name="w" unicode="w" horiz-adv-x="1540" 
d="M104 946l334 -776l334 827l336 -827l328 776h94l-428 -997l-334 817l-332 -817l-426 997h94z" />
    <glyph glyph-name="x" unicode="x" horiz-adv-x="907" 
d="M393 500l-352 446h111l301 -383l303 383h110l-352 -446l385 -500h-108l-338 434l-336 -434h-109z" />
    <glyph glyph-name="y" unicode="y" horiz-adv-x="942" 
d="M440 -16l-454 962h96l403 -856l363 856h94l-635 -1499h-94z" />
    <glyph glyph-name="z" unicode="z" horiz-adv-x="983" 
d="M969 86v-86h-963l774 860h-649v86h842l-772 -860h768z" />
    <glyph glyph-name="braceleft" unicode="{" horiz-adv-x="614" 
d="M233 846v362q0 174 61.5 252t235.5 82v-92q-10 -2 -50.5 -2t-94 -35t-53.5 -129v-379q0 -154 -36 -218t-106 -112q-2 -2 -4 -3t-4 -3v-8q74 -49 112 -117.5t38 -228.5v-377q0 -94 54.5 -129t71.5 -35h72v-90q-174 6 -235.5 82t-61.5 252v361q0 145 -69.5 189t-79.5 52v92
q17 8 56 39q93 72 93 195z" />
    <glyph glyph-name="bar" unicode="|" horiz-adv-x="655" 
d="M279 0v1690h98v-1690h-98z" />
    <glyph glyph-name="braceright" unicode="}" horiz-adv-x="614" 
d="M381 276v-358q0 -176 -60.5 -252t-236.5 -82v90h46q45 0 99 35t54 129v379q0 158 37.5 226.5t111.5 115.5v12q-4 0 -8 4q-70 47 -105.5 112t-35.5 216v383q0 92 -54 127t-71 35h-74v96q176 -6 236.5 -84t60.5 -254v-358q0 -76 29.5 -126t96.5 -95l23 -105
q-10 -10 -79.5 -56.5t-69.5 -189.5z" />
    <glyph glyph-name="asciitilde" unicode="~" horiz-adv-x="1269" 
d="M530 507.5q-64 27.5 -126 27.5t-109 -45.5t-88 -106.5l-96 49q13 13 49 60q47 55 107.5 102t144.5 47v2q60 -3 119 -26q58 -23 79 -31t36 -16t24.5 -12t39.5 -18q113 -55 167 -55q93 0 184 164l98 -45q0 -4 -4 -8q-51 -82 -122.5 -149.5t-159.5 -67.5t-183.5 50.5
t-159.5 78z" />
    <glyph glyph-name="glyph163" unicode="&#xa1;" horiz-adv-x="655" 
d="M412 880.5q0 -34.5 -25 -59t-59.5 -24.5t-59 24.5t-24.5 59t24.5 59.5t59.5 25v2q35 -2 59.5 -27t24.5 -59.5zM377 657v-1251h-98v1251h98z" />
    <glyph glyph-name="cent" unicode="&#xa2;" horiz-adv-x="1269" 
d="M311 786q0 -146 94.5 -266.5t241.5 -140.5v813q-147 -23 -241.5 -141.5t-94.5 -264.5zM739 31h-92v264q-182 16 -305 155.5t-123 327.5t117 333.5t311 166.5v242h92v-238q82 -4 159 -36l138 -206q-129 142 -297 154v-815q90 6 171 52t134 116l5 2v-125
q-138 -125 -310 -133v-260z" />
    <glyph glyph-name="sterling" unicode="&#xa3;" horiz-adv-x="1269" 
d="M850 -20q-49 0 -115 19q-65 19 -82.5 27t-100.5 40t-146 32q-64 0 -118.5 -36.5t-101.5 -81.5l-55 79q45 47 116.5 89t110 42h48.5q131 111 131 244l-7 62h-254v92h230l-166 282q-42 65 -62 105q-49 96 -49 201q0 170 125 278.5t290 108.5t277.5 -117t112.5 -281v-10
l-98 2q2 133 -83 223t-217 90t-220 -92t-88 -213q0 -91 80 -217q48 -75 72 -116q24 -40 64 -107.5t68 -138.5l279 2v-92h-260l4 -68v-20q-12 -135 -117 -240l21 -4q23 -8 51 -19.5t48 -19.5t30 -11.5t65 -23.5q55 -21 115 -20q60 0 114 49t87 108q2 2 3 5.5t3 5.5l84 -48
q0 -4 -4 -8q-43 -76 -117 -139t-168 -63z" />
    <glyph glyph-name="Idieresis" unicode="&#xa4;" horiz-adv-x="1269" 
d="M635 199q174 0 298 123.5t127 294.5t-122 289t-303 120v2q-178 -4 -302 -122t-121 -289t126 -294.5t297 -123.5zM113 573q0 129 25 201t83 162l-82 84l74 74l86 -86q71 46 112 67q95 49 245.5 49t314.5 -118l86 88l73 -74l-81 -82q108 -168 108 -325.5t-108 -323.5
l81 -80l-73 -74l-86 86q-151 -121 -329 -121t-343 119l-86 -84l-74 74l82 82q-108 153 -108 282z" />
    <glyph glyph-name="ae" unicode="&#xa5;" horiz-adv-x="1269" 
d="M168 813v92h274l-370 639h118l445 -772l444 772h119l-371 -639h275v-92h-328l-90 -154h418v-92h-418v-567h-98v567h-418v92h418l-88 154h-330z" />
    <glyph glyph-name="brokenbar" unicode="&#xa6;" 
 />
    <glyph glyph-name="section" unicode="&#xa7;" horiz-adv-x="1269" 
d="M909 585q0 112 -81.5 193.5t-193.5 81.5t-194 -82t-82 -194t82 -190.5t195 -78.5v2q111 -2 192.5 77t81.5 191zM295 -57v34h98v-26q2 -125 55.5 -189.5t176.5 -64.5t197.5 62.5t74.5 177t-82 170t-220 101.5t-236.5 123t-98.5 249q0 121 60.5 214t171.5 138
q-100 49 -148.5 120.5t-48.5 186.5q0 158 104.5 241t253.5 83q195 0 261.5 -98.5t80.5 -272.5l-98 2q-4 276 -239 276q-124 0 -194.5 -65t-70.5 -185t81 -169.5t137 -67.5l101 -33q101 -32 198.5 -107t97.5 -263q0 -119 -64.5 -205t-167.5 -137q219 -82 219 -316
q0 -164 -106.5 -240.5t-272.5 -76.5t-243.5 87t-77.5 251z" />
    <glyph glyph-name="dieresis" unicode="&#xa8;" horiz-adv-x="862" 
d="M705 1297q0 -34 -23.5 -58.5t-57.5 -24.5t-58.5 25t-24.5 59t24.5 57t57.5 23v2q35 -2 58.5 -25.5t23.5 -57.5zM322 1297q0 -34 -24 -58.5t-58 -24.5t-58 25t-24 59t24.5 57t57.5 23v2q35 -2 58.5 -25.5t23.5 -57.5z" />
    <glyph glyph-name="copyright" unicode="&#xa9;" horiz-adv-x="1638" 
d="M856 420h6q92 2 171 56t91 153v2h99q-14 -145 -122 -227t-245 -82q-199 0 -318.5 132t-119.5 326t115.5 323.5t316.5 129.5q143 0 247.5 -78t125.5 -221l-99 2q-16 92 -96 145.5t-176 53.5q-156 0 -246 -103.5t-90 -249.5t93 -254t247 -108zM1513 771q0 290 -201.5 491.5
t-491.5 201.5t-492.5 -201.5t-202.5 -491.5t202.5 -492.5t493.5 -202.5v2q289 -2 490.5 200.5t201.5 492.5zM821.5 -20q-327.5 0 -561 232t-233.5 560t233.5 559.5t561 231.5t559 -231.5t231.5 -559.5t-231.5 -560t-559 -232z" />
    <glyph glyph-name="ellipsis" unicode="&#xaa;" horiz-adv-x="688" 
d="M115 1267q0 -87 60.5 -157t168.5 -70t169.5 70t61.5 162t-67.5 156.5t-173.5 64.5v2q-96 -2 -157.5 -71.5t-61.5 -156.5zM354 1563q147 0 228 -111l4 2v98h59v-567h-59v102h-4q-29 -49 -83.5 -78.5t-113.5 -35.5l-37 -2q-139 0 -221 87t-82 212t81 209t228 84zM645 838
v-70h-600v70h600z" />
    <glyph glyph-name="ydieresis" unicode="&#xab;" horiz-adv-x="813" 
d="M428 655l248 -290l-60 -56l-299 346l299 346l60 -55zM182 655l248 -290l-59 -56l-299 346l299 346l59 -55z" />
    <glyph glyph-name="emdash" unicode="&#xac;" 
 />
    <glyph glyph-name="uni00AD" unicode="&#xad;" horiz-adv-x="1024" 
 />
    <glyph glyph-name="registered" unicode="&#xae;" horiz-adv-x="1638" 
d="M631 821h170q10 -2 37.5 -2t89.5 1q63 1 127.5 26.5t64.5 107.5t-64 109t-169 27l-256 2v-271zM1513 771q0 290 -201.5 491.5t-491.5 201.5t-492.5 -201.5t-202.5 -491.5t202.5 -492.5t493.5 -202.5v2q289 -2 490.5 200.5t201.5 492.5zM821.5 -20q-327.5 0 -561 232
t-233.5 560t233.5 559.5t561 231.5t559 -231.5t231.5 -559.5t-231.5 -560t-559 -232zM631 723v-399h-99v866h379q172 -2 240 -62.5t68 -178.5t-79 -171t-193 -57l261 -397h-127l-247 399h-203z" />
    <glyph glyph-name="glyph263" unicode="&#xaf;" 
 />
    <glyph glyph-name="glyph264" unicode="&#xb0;" 
 />
    <glyph glyph-name="mu" unicode="&#xb1;" horiz-adv-x="1269" 
d="M586 655v394h98v-394h475v-98h-475v-393h-98v393h-475v98h475zM111 0v98h1048v-98h-1048z" />
    <glyph glyph-name="uni00B2" unicode="&#xb2;" 
 />
    <glyph glyph-name="uni00B3" unicode="&#xb3;" 
 />
    <glyph glyph-name="acute" unicode="&#xb4;" horiz-adv-x="641" 
d="M360 1462l125 -39l-254 -297l-77 35z" />
    <glyph glyph-name="oslash" unicode="&#xb5;" horiz-adv-x="966" 
d="M322.5 34q-62.5 54 -82.5 111l-4 2v-700h-93v1499h93v-467q0 -59 10 -147t63 -178.5t174 -90.5q170 0 209 104.5t39 242.5v536h92v-579q0 -70 -7 -137.5t-51 -125.5t-119.5 -91t-167.5 -33q-93 0 -155.5 54z" />
    <glyph glyph-name="paragraph" unicode="&#xb6;" horiz-adv-x="1269" 
d="M578 -365v1123q-156 -4 -254.5 112.5t-98.5 290.5t100.5 277.5t315.5 103.5l403 2v-92h-81v-1817h-99v1817h-188v-1817h-98z" />
    <glyph glyph-name="glyph265" unicode="&#xb7;" 
 />
    <glyph glyph-name="bullet" unicode="&#xb8;" horiz-adv-x="612" 
d="M459 -86l-228 -289l-77 39l190 295z" />
    <glyph glyph-name="uni00B9" unicode="&#xb9;" 
 />
    <glyph glyph-name="Agrave" unicode="&#xba;" horiz-adv-x="671" 
d="M94 1265q0 -89 67 -157t169 -68t175 64t73 160t-72 162.5t-176 66.5v2q-100 -2 -168 -71.5t-68 -158.5zM657 1268q0 -127 -94 -212t-227 -85t-227.5 87t-94.5 209t93.5 209t226.5 87v2q135 -2 229 -86t94 -211zM657 838v-70h-643v70h643z" />
    <glyph glyph-name="Ydieresis" unicode="&#xbb;" horiz-adv-x="813" 
d="M383 365l248 290l-248 291l59 55l299 -346l-299 -346zM137 365l248 290l-248 291l60 55l299 -346l-299 -346z" />
    <glyph glyph-name="onequarter" unicode="&#xbc;" 
 />
    <glyph glyph-name="glyph243" unicode="&#xbd;" horiz-adv-x="1904" 
d="M360 1475h-155l31 69h194v-917h-70v848zM1696 70v-70h-619l373 379q25 21 63 63q117 130 117 224t-67.5 147t-166.5 53t-164 -54t-65 -148l-69 2q7 165 116 217.5t185 52.5q125 0 213 -78t88 -200t-146 -271q-12 -15 -34 -37l-279 -280h455zM1239 1581l66 -37l-916 -1579
l-65 37z" />
    <glyph glyph-name="threequarters" unicode="&#xbe;" 
 />
    <glyph glyph-name="oe" unicode="&#xbf;" horiz-adv-x="1005" 
d="M592 880.5q0 -34.5 -24.5 -59t-59.5 -24.5t-59.5 24.5t-24.5 59t24.5 59.5t59.5 25v2q35 -2 59.5 -27t24.5 -59.5zM870 -289q0 -147 -110 -238t-266 -91t-257.5 103t-101.5 271t93.5 244t217.5 108t202.5 73t78.5 149t-64.5 169.5t-166.5 61.5t-159 -72t-56 -163h-99v14
q0 133 88 223t226 90t233.5 -86t95.5 -223t-83 -206.5t-218 -103.5t-213 -85t-78 -181t76 -212t194 -82t194.5 74.5t74.5 185.5q0 65 -10 108h94q14 -77 14 -131z" />
    <glyph glyph-name="currency" unicode="&#xc0;" horiz-adv-x="1312" 
d="M489 2021l125 39l207 -301l-78 -35zM958 600l-301 746l-303 -746h604zM995 508h-678l-206 -508h-101l647 1595l646 -1595h-101z" />
    <glyph glyph-name="breve" unicode="&#xc1;" horiz-adv-x="1312" 
d="M696 2060l125 -39l-254 -297l-78 35zM958 600l-301 746l-303 -746h604zM995 508h-678l-206 -508h-101l647 1595l646 -1595h-101z" />
    <glyph glyph-name="tilde" unicode="&#xc2;" horiz-adv-x="1312" 
d="M375 1802l282 217l283 -217l-78 -59l-205 158l-208 -158zM958 600l-301 746l-303 -746h604zM995 508h-678l-206 -508h-101l647 1595l646 -1595h-101z" />
    <glyph glyph-name="guilsinglleft" unicode="&#xc3;" horiz-adv-x="1312" 
d="M512 1880q-62 0 -90 -82l-62 45q20 47 61.5 88t100.5 41t129 -35q9 0 14 -3t6 -4l27 -10q70 -28 101 -28t56.5 26t35.5 58l59 -43q-14 -57 -61 -96t-89 -39t-77 13.5t-59 22.5t-69.5 27.5t-82.5 18.5zM958 600l-301 746l-303 -746h604zM995 508h-678l-206 -508h-101
l647 1595l646 -1595h-101z" />
    <glyph glyph-name="Adieresis" unicode="&#xc4;" horiz-adv-x="1312" 
d="M930 1895q0 -34 -23.5 -58.5t-57.5 -24.5t-58.5 25t-24.5 59t24.5 57t57.5 23v2q35 -2 58.5 -25.5t23.5 -57.5zM547 1895q0 -34 -23.5 -58.5t-57.5 -24.5t-58.5 25t-24.5 59t24.5 57t57.5 23v2q35 -2 58.5 -25.5t23.5 -57.5zM958 600l-301 746l-303 -746h604zM995 508
h-678l-206 -508h-101l647 1595l646 -1595h-101z" />
    <glyph glyph-name="Aring" unicode="&#xc5;" horiz-adv-x="1312" 
d="M561 1881q0 -40 28.5 -68.5t68.5 -28.5t68 28.5t28 68.5t-28 67.5t-69 27.5v2q-39 -2 -67.5 -29.5t-28.5 -67.5zM836 1880q0 -74 -52.5 -126t-126 -52t-126 52t-52.5 126t52.5 126t125.5 52v2q74 -2 126.5 -54t52.5 -126zM958 600l-301 746l-303 -746h604zM995 508h-678
l-206 -508h-101l647 1595l646 -1595h-101z" />
    <glyph glyph-name="Oslash" unicode="&#xc6;" horiz-adv-x="1929" 
d="M944 600l-295 727l-289 -727h584zM983 508h-661l-201 -508h-111l623 1544h674l34 -92h-636l229 -561h620l39 -92h-620l287 -707h638l37 -92h-747z" />
    <glyph glyph-name="Ccedilla" unicode="&#xc7;" horiz-adv-x="1513" 
d="M881 1563h22q133 -4 262 -57l228 -277q-74 88 -211.5 164.5t-307.5 76.5q-289 0 -495.5 -213t-206.5 -497q0 -135 55.5 -258t151.5 -219q94 -88 219 -148.5t256 -64.5h34q165 0 305 80.5t200 154.5v-133q-227 -192 -514 -192q-322 0 -563.5 232t-241.5 559t239.5 559.5
t567.5 232.5zM909 -86l-227 -289l-78 39l191 295z" />
    <glyph glyph-name="ring" unicode="&#xc8;" horiz-adv-x="1038" 
d="M352 2021l125 39l207 -301l-78 -35zM903 1452h-639v-561h623v-92h-623v-707h639v-92h-737v1544h737v-92z" />
    <glyph glyph-name="Eacute" unicode="&#xc9;" horiz-adv-x="1038" 
d="M559 2060l125 -39l-254 -297l-78 35zM903 1452h-639v-561h623v-92h-623v-707h639v-92h-737v1544h737v-92z" />
    <glyph glyph-name="macron" unicode="&#xca;" horiz-adv-x="1038" 
d="M238 1802l282 217l283 -217l-78 -59l-205 158l-209 -158zM903 1452h-639v-561h623v-92h-623v-707h639v-92h-737v1544h737v-92z" />
    <glyph glyph-name="dotaccent" unicode="&#xcb;" horiz-adv-x="1038" 
d="M793 1895q0 -34 -23.5 -58.5t-57.5 -24.5t-58.5 25t-24.5 59t24.5 57t57.5 23v2q35 -2 58.5 -25.5t23.5 -57.5zM410 1895q0 -34 -24 -58.5t-58 -24.5t-58 25t-24 59t24.5 57t57.5 23v2q35 -2 58.5 -25.5t23.5 -57.5zM903 1452h-639v-561h623v-92h-623v-707h639v-92h-737
v1544h737v-92z" />
    <glyph glyph-name="caron" unicode="&#xcc;" horiz-adv-x="430" 
d="M49 2021l125 39l207 -301l-78 -35zM264 1544v-1544h-98v1544h98z" />
    <glyph glyph-name="cedilla" unicode="&#xcd;" horiz-adv-x="430" 
d="M256 2060l125 -39l-254 -297l-78 35zM264 1544v-1544h-98v1544h98z" />
    <glyph glyph-name="hungarumlaut" unicode="&#xce;" horiz-adv-x="430" 
d="M-68 1802l283 217l283 -217l-78 -59l-205 158l-209 -158zM264 1544v-1544h-98v1544h98z" />
    <glyph glyph-name="ogonek" unicode="&#xcf;" horiz-adv-x="430" 
d="M489 1895q0 -34 -23.5 -58.5t-57.5 -24.5t-58 25t-24 59t24.5 57t57.5 23v2q35 -2 58 -25.5t23 -57.5zM106 1895q0 -34 -23 -58.5t-57 -24.5t-57.5 25t-23.5 59t23.5 57t56.5 23v2q35 -2 58 -25.5t23 -57.5zM264 1544v-1544h-98v1544h98z" />
    <glyph glyph-name="glyph232" unicode="&#xd0;" horiz-adv-x="1335" 
d="M264 889h354v-92h-354v-705h178q152 -2 280 37t232 142q210 207 211 497q0 147 -57 280.5t-166 233.5q-111 100 -232.5 134t-267.5 34l-178 2v-563zM166 0v797h-166v92h166v655h278q170 -2 308.5 -40t262.5 -154t186.5 -266t62.5 -313t-60.5 -309t-182.5 -264
t-263.5 -158t-313.5 -40h-278z" />
    <glyph glyph-name="Ntilde" unicode="&#xd1;" horiz-adv-x="1726" 
d="M728 1972q58 0 130 -35q8 0 13 -3t10.5 -4.5t49.5 -19.5t74 -18q31 0 56.5 26t36.5 58l59 -43q-14 -57 -61.5 -96t-89.5 -39t-76 13.5t-58 22.5q-35 14 -79 30q-43 16 -74 16q-62 0 -90 -82l-62 45q20 47 61.5 88t99.5 41zM1561 1544v-1595l-1297 1378v-1327h-98v1565
l1296 -1368v1347h99z" />
    <glyph glyph-name="scaron" unicode="&#xd2;" 
 />
    <glyph glyph-name="Lslash" unicode="&#xd3;" horiz-adv-x="1748" 
d="M915 2060l125 -39l-254 -297l-77 35zM172 771q0 -286 207 -493.5t495 -207.5t495.5 207.5t207.5 493.5t-208 492.5t-495 206.5v3q-289 -2 -495.5 -209t-206.5 -493zM1675 770q0 -326 -237.5 -558t-563 -232t-563 232t-237.5 558t236.5 559.5t563.5 233.5v2
q326 -2 563.5 -235.5t237.5 -559.5z" />
    <glyph glyph-name="lslash" unicode="&#xd4;" horiz-adv-x="1748" 
d="M592 1802l282 217l283 -217l-78 -59l-205 158l-208 -158zM172 771q0 -286 207 -493.5t495 -207.5t495.5 207.5t207.5 493.5t-208 492.5t-495 206.5v3q-289 -2 -495.5 -209t-206.5 -493zM1675 770q0 -326 -237.5 -558t-563 -232t-563 232t-237.5 558t236.5 559.5
t563.5 233.5v2q326 -2 563.5 -235.5t237.5 -559.5z" />
    <glyph glyph-name="guilsinglright" unicode="&#xd5;" horiz-adv-x="1748" 
d="M731 1880q-62 0 -90 -82l-61 45q20 47 61 88t100 41t129 -35q9 0 14 -3t6 -4l26 -10q70 -28 102 -28q31 0 56.5 26t35.5 58l59 -43q-14 -57 -61 -96t-89 -39t-76.5 13.5t-58.5 22.5t-70.5 27.5t-82.5 18.5zM172 771q0 -286 207 -493.5t495 -207.5t495.5 207.5
t207.5 493.5t-208 492.5t-495 206.5v3q-289 -2 -495.5 -209t-206.5 -493zM1675 770q0 -326 -237.5 -558t-563 -232t-563 232t-237.5 558t236.5 559.5t563.5 233.5v2q326 -2 563.5 -235.5t237.5 -559.5z" />
    <glyph glyph-name="Odieresis" unicode="&#xd6;" horiz-adv-x="1748" 
d="M1149 1895q0 -34 -23.5 -58.5t-57.5 -24.5t-58.5 25t-24.5 59t24.5 57t57.5 23v2q35 -2 58.5 -25.5t23.5 -57.5zM766 1895q0 -34 -23.5 -58.5t-57.5 -24.5t-58.5 25t-24.5 59t24.5 57t57.5 23v2q35 -2 58.5 -25.5t23.5 -57.5zM172 771q0 -286 207 -493.5t495 -207.5
t495.5 207.5t207.5 493.5t-208 492.5t-495 206.5v3q-289 -2 -495.5 -209t-206.5 -493zM1675 770q0 -326 -237.5 -558t-563 -232t-563 232t-237.5 558t236.5 559.5t563.5 233.5v2q326 -2 563.5 -235.5t237.5 -559.5z" />
    <glyph glyph-name="multiply" unicode="&#xd7;" 
 />
    <glyph glyph-name="plusminus" unicode="&#xd8;" horiz-adv-x="1748" 
d="M874 1470q-289 0 -495.5 -206.5t-206.5 -493.5v-68q0 -69 50 -186t124 -203v2l977 990q-192 157 -426 165h-23zM874 70q287 0 495 207.5t208 492.5q0 131 -51 255t-142 218v2l-978 -991q90 -82 207.5 -131t238.5 -53h22zM1675 770q0 -326 -237.5 -558t-548.5 -232
t-551 204l-4 4l-184 -188l-56 59l178 191q-86 96 -142 231.5t-56 168.5v120q0 326 236.5 559.5t563.5 233.5q141 0 276.5 -52.5t244.5 -142.5l186 188l61 -61l-184 -184q98 -106 155.5 -241.5t61.5 -278.5v-21z" />
    <glyph glyph-name="Thorn" unicode="&#xd9;" horiz-adv-x="1351" 
d="M510 2021l125 39l207 -301l-78 -35zM152 580v964h98v-1001q2 -88 15.5 -173.5t58.5 -143.5q80 -105 239 -142q51 -14 114 -14t121 15q152 39 224 134q75 97 79 288q1 52 1 57v980h98v-962q0 -121 -13 -224.5t-91 -199.5q-74 -82 -177 -127t-173 -48t-141 0t-173 48
t-176 127q-78 96 -91 199.5t-13 222.5z" />
    <glyph glyph-name="Eth" unicode="&#xda;" horiz-adv-x="1351" 
d="M717 2060l125 -39l-254 -297l-78 35zM152 580v964h98v-1001q2 -88 15.5 -173.5t58.5 -143.5q80 -105 239 -142q51 -14 114 -14t121 15q152 39 224 134q75 97 79 288q1 52 1 57v980h98v-962q0 -121 -13 -224.5t-91 -199.5q-74 -82 -177 -127t-173 -48t-141 0t-173 48
t-176 127q-78 96 -91 199.5t-13 222.5z" />
    <glyph glyph-name="eth" unicode="&#xdb;" horiz-adv-x="1351" 
d="M393 1802l283 217l282 -217l-77 -59l-205 158l-209 -158zM152 580v964h98v-1001q2 -88 15.5 -173.5t58.5 -143.5q80 -105 239 -142q51 -14 114 -14t121 15q152 39 224 134q75 97 79 288q1 52 1 57v980h98v-962q0 -121 -13 -224.5t-91 -199.5q-74 -82 -177 -127t-173 -48
t-141 0t-173 48t-176 127q-78 96 -91 199.5t-13 222.5z" />
    <glyph glyph-name="Udieresis" unicode="&#xdc;" horiz-adv-x="1351" 
d="M950 1895q0 -34 -23.5 -58.5t-57.5 -24.5t-58.5 25t-24.5 59t25 57t57 23v2q35 -2 58.5 -25.5t23.5 -57.5zM567 1895q0 -34 -23.5 -58.5t-57.5 -24.5t-58.5 25t-24.5 59t25 57t57 23v2q35 -2 58.5 -25.5t23.5 -57.5zM152 580v964h98v-1001q2 -88 15.5 -173.5t58.5 -143.5
q80 -105 239 -142q51 -14 114 -14t121 15q152 39 224 134q75 97 79 288q1 52 1 57v980h98v-962q0 -121 -13 -224.5t-91 -199.5q-74 -82 -177 -127t-173 -48t-141 0t-173 48t-176 127q-78 96 -91 199.5t-13 222.5z" />
    <glyph glyph-name="Yacute" unicode="&#xdd;" 
 />
    <glyph glyph-name="glyph236" unicode="&#xde;" horiz-adv-x="966" 
d="M264 498h178q175 -5 273 84t98 229q0 72 -28.5 139.5t-82.5 107.5t-117 52t-81 12h-78l-162 2v-626zM166 0v1544h98v-327h174q90 -2 176 -16.5t158 -74.5q139 -117 139 -319q0 -106 -38.5 -184t-92.5 -124q-99 -84 -272 -93q-27 -3 -70 -3l-174 3v-406h-98z" />
    <glyph glyph-name="germandbls" unicode="&#xdf;" horiz-adv-x="1093" 
d="M825 1382q0 -92 -47 -168.5t-133 -109.5v-2q174 -49 278.5 -204t104.5 -331q0 -233 -165 -396t-390 -183v86q188 27 325.5 162.5t137.5 335.5t-132 329t-331 150v88q115 0 187.5 68.5t72.5 180.5t-71.5 176t-176.5 64q-70 0 -121 -28.5t-71 -63.5q-35 -61 -39 -131
q-4 -71 -4 -109v-1296h-92v860h-101v86h101v326q0 325 115.5 378.5t179.5 61.5l47 2q143 0 234 -95t91 -237z" />
    <glyph glyph-name="agrave" unicode="&#xe0;" horiz-adv-x="1146" 
d="M408 1423l124 39l207 -301l-77 -35zM158 473q0 -158 100 -284t277 -126t272.5 127t95.5 294t-103.5 281t-275.5 114v2q-162 -2 -264 -126t-102 -282zM989 946v-946h-92v170h-4q-45 -80 -141 -135t-220 -55q-215 0 -340.5 145t-125.5 352t124.5 347.5t337.5 140.5
q109 0 207.5 -47.5t157.5 -137.5l4 2v164h92z" />
    <glyph glyph-name="aacute" unicode="&#xe1;" horiz-adv-x="1146" 
d="M614 1462l125 -39l-254 -297l-77 35zM158 473q0 -158 100 -284t277 -126t272.5 127t95.5 294t-103.5 281t-275.5 114v2q-162 -2 -264 -126t-102 -282zM989 946v-946h-92v170h-4q-45 -80 -141 -135t-220 -55q-215 0 -340.5 145t-125.5 352t124.5 347.5t337.5 140.5
q109 0 207.5 -47.5t157.5 -137.5l4 2v164h92z" />
    <glyph glyph-name="acircumflex" unicode="&#xe2;" horiz-adv-x="1146" 
d="M291 1204l282 217l283 -217l-78 -59l-205 158l-208 -158zM158 473q0 -158 100 -284t277 -126t272.5 127t95.5 294t-103.5 281t-275.5 114v2q-162 -2 -264 -126t-102 -282zM989 946v-946h-92v170h-4q-45 -80 -141 -135t-220 -55q-215 0 -340.5 145t-125.5 352t124.5 347.5
t337.5 140.5q109 0 207.5 -47.5t157.5 -137.5l4 2v164h92z" />
    <glyph glyph-name="atilde" unicode="&#xe3;" horiz-adv-x="1146" 
d="M430 1282q-62 0 -90 -82l-61 45q20 47 61 88t100 41t129 -35q9 0 14 -3t6 -4l27 -10q70 -28 101 -28t56.5 26t35.5 58l59 -43q-14 -57 -61 -96t-89 -39t-77 13.5t-59 22.5t-70 27.5t-82 18.5zM158 473q0 -158 100 -284t277 -126t272.5 127t95.5 294t-103.5 281
t-275.5 114v2q-162 -2 -264 -126t-102 -282zM989 946v-946h-92v170h-4q-45 -80 -141 -135t-220 -55q-215 0 -340.5 145t-125.5 352t124.5 347.5t337.5 140.5q109 0 207.5 -47.5t157.5 -137.5l4 2v164h92z" />
    <glyph glyph-name="adieresis" unicode="&#xe4;" horiz-adv-x="1146" 
d="M848 1297q0 -34 -23.5 -58.5t-57.5 -24.5t-58.5 25t-24.5 59t24.5 57t57.5 23v2q35 -2 58.5 -25.5t23.5 -57.5zM465 1297q0 -34 -23.5 -58.5t-57.5 -24.5t-58.5 25t-24.5 59t24.5 57t57.5 23v2q35 -2 58.5 -25.5t23.5 -57.5zM158 473q0 -158 100 -284t277 -126t272.5 127
t95.5 294t-103.5 281t-275.5 114v2q-162 -2 -264 -126t-102 -282zM989 946v-946h-92v170h-4q-45 -80 -141 -135t-220 -55q-215 0 -340.5 145t-125.5 352t124.5 347.5t337.5 140.5q109 0 207.5 -47.5t157.5 -137.5l4 2v164h92z" />
    <glyph glyph-name="aring" unicode="&#xe5;" horiz-adv-x="1146" 
d="M477 1283q0 -40 28.5 -68.5t68.5 -28.5t68 28.5t28 68.5t-28 67.5t-69 27.5v2q-39 -2 -67.5 -29.5t-28.5 -67.5zM752 1282q0 -74 -52.5 -126t-126 -52t-126 52t-52.5 126t52.5 126t125.5 52v2q74 -2 126.5 -54t52.5 -126zM158 473q0 -158 100 -284t277 -126t272.5 127
t95.5 294t-103.5 281t-275.5 114v2q-162 -2 -264 -126t-102 -282zM989 946v-946h-92v170h-4q-45 -80 -141 -135t-220 -55q-215 0 -340.5 145t-125.5 352t124.5 347.5t337.5 140.5q109 0 207.5 -47.5t157.5 -137.5l4 2v164h92z" />
    <glyph glyph-name="Otilde" unicode="&#xe6;" horiz-adv-x="1738" 
d="M1219 879q-141 0 -247 -99t-120 -231h729q-16 129 -118.5 229.5t-243.5 100.5zM135 270q0 -100 87 -153.5t226 -53.5q138 0 225 62.5t87 154.5t-86 147.5t-219 55.5v2q-23 -2 -95 -8t-148.5 -56.5t-76.5 -150.5zM416 965q302 0 397 -263q51 119 162.5 191t238.5 72
q215 0 336 -151.5t123 -352.5l-821 2q4 -162 104.5 -281t268.5 -119q109 0 197.5 60.5t140.5 152.5v3l79 -54q-70 -113 -179 -179t-242 -66h-11q-117 2 -222 62t-154 169l-5 2q-27 -106 -133 -169.5t-193 -63.5t-108.5 2t-44.5 4q-115 16 -211 85.5t-96 200.5t115.5 214
t300.5 83t301 -100q2 164 -74 287t-262 123q-126 0 -318 -86v96q152 76 310 76z" />
    <glyph glyph-name="ccedilla" unicode="&#xe7;" horiz-adv-x="976" 
d="M560 879q-179 0 -290.5 -122t-111.5 -284t110.5 -286t278.5 -124q102 0 193 46.5t155 123.5v-122q-143 -131 -349 -131t-343 143t-137 350t139 349.5t348 142.5q92 0 176 -29l154 -209q-144 152 -323 152zM641 -86l-227 -289l-78 39l190 295z" />
    <glyph glyph-name="egrave" unicode="&#xe8;" horiz-adv-x="1044" 
d="M356 1423l125 39l207 -301l-78 -35zM528 879q-144 0 -251 -98q-106 -98 -119 -230h729q-16 129 -115.5 228.5t-243.5 99.5zM158 465v-16q0 -174 108.5 -280t270.5 -106q111 0 196.5 60.5t136.5 155.5l78 -43q-63 -125 -173.5 -190.5t-250.5 -65.5q-211 0 -334.5 146
t-123.5 346t125.5 346.5t336.5 146.5q212 -1 332 -149t119 -351h-821z" />
    <glyph glyph-name="eacute" unicode="&#xe9;" horiz-adv-x="1044" 
d="M563 1462l125 -39l-254 -297l-78 35zM528 879q-144 0 -251 -98q-106 -98 -119 -230h729q-16 129 -115.5 228.5t-243.5 99.5zM158 465v-16q0 -174 108.5 -280t270.5 -106q111 0 196.5 60.5t136.5 155.5l78 -43q-63 -125 -173.5 -190.5t-250.5 -65.5q-211 0 -334.5 146
t-123.5 346t125.5 346.5t336.5 146.5q212 -1 332 -149t119 -351h-821z" />
    <glyph glyph-name="ecircumflex" unicode="&#xea;" horiz-adv-x="1044" 
d="M240 1204l282 217l283 -217l-78 -59l-205 158l-209 -158zM528 879q-144 0 -251 -98q-106 -98 -119 -230h729q-16 129 -115.5 228.5t-243.5 99.5zM158 465v-16q0 -174 108.5 -280t270.5 -106q111 0 196.5 60.5t136.5 155.5l78 -43q-63 -125 -173.5 -190.5t-250.5 -65.5
q-211 0 -334.5 146t-123.5 346t125.5 346.5t336.5 146.5q212 -1 332 -149t119 -351h-821z" />
    <glyph glyph-name="edieresis" unicode="&#xeb;" horiz-adv-x="1044" 
d="M797 1297q0 -34 -23.5 -58.5t-57.5 -24.5t-58.5 25t-24.5 59t24.5 57t57.5 23v2q35 -2 58.5 -25.5t23.5 -57.5zM414 1297q0 -34 -23.5 -58.5t-57.5 -24.5t-58.5 25t-24.5 59t24.5 57t57.5 23v2q35 -2 58.5 -25.5t23.5 -57.5zM528 879q-144 0 -251 -98q-106 -98 -119 -230
h729q-16 129 -115.5 228.5t-243.5 99.5zM158 465v-16q0 -174 108.5 -280t270.5 -106q111 0 196.5 60.5t136.5 155.5l78 -43q-63 -125 -173.5 -190.5t-250.5 -65.5q-211 0 -334.5 146t-123.5 346t125.5 346.5t336.5 146.5q212 -1 332 -149t119 -351h-821z" />
    <glyph glyph-name="igrave" unicode="&#xec;" horiz-adv-x="479" 
d="M74 1423l125 39l207 -301l-78 -35zM285 946v-946h-92v946h92z" />
    <glyph glyph-name="iacute" unicode="&#xed;" horiz-adv-x="479" 
d="M281 1462l125 -39l-254 -297l-78 35zM285 946v-946h-92v946h92z" />
    <glyph glyph-name="icircumflex" unicode="&#xee;" horiz-adv-x="479" 
d="M-43 1204l283 217l282 -217l-78 -59l-204 158l-209 -158zM285 946v-946h-92v946h92z" />
    <glyph glyph-name="idieresis" unicode="&#xef;" horiz-adv-x="479" 
d="M514 1297q0 -34 -23.5 -58.5t-57.5 -24.5t-58.5 25t-24.5 59t24.5 57t57.5 23v2q35 -2 58.5 -25.5t23.5 -57.5zM131 1297q0 -34 -23.5 -58.5t-57.5 -24.5t-57.5 25t-23.5 59t23.5 57t56.5 23v2q35 -2 58.5 -25.5t23.5 -57.5zM285 946v-946h-92v946h92z" />
    <glyph glyph-name="glyph233" unicode="&#xf0;" horiz-adv-x="1120" 
d="M952 469q0 215 -113.5 312.5t-278.5 97.5t-277.5 -123t-112.5 -286t112.5 -285t280.5 -122v3q168 -2 278.5 120.5t110.5 282.5zM1044 487q0 -191 -124 -349t-340 -158t-359 144t-143 347t143.5 348.5t347.5 145.5q169 0 308 -107l4 6q-138 309 -357 500v2l-321 -233
l-53 69l307 223q-12 8 -25.5 19.5t-76.5 59.5t-117 78t-82 46l65 62q162 -91 311 -211l283 211l51 -66l-266 -197q197 -184 297 -378q59 -115 103 -243t44 -319z" />
    <glyph glyph-name="ntilde" unicode="&#xf1;" horiz-adv-x="1003" 
d="M358 1282q-62 0 -90 -82l-61 45q20 47 61 88t99 41t131 -35q8 0 13 -3t6 -4l27 -10q70 -28 101 -28t56.5 26t35.5 58l60 -43q-14 -57 -61.5 -96t-89.5 -39t-76 13.5t-58 22.5q-35 13 -79 30q-43 16 -75 16zM250 946v-147h4q41 76 114.5 121t166.5 45q182 0 246.5 -106.5
t64.5 -289.5v-569h-92v571q0 125 -36 216.5t-193 91.5t-216 -116.5t-59 -153.5v-609h-92v946h92z" />
    <glyph glyph-name="ograve" unicode="&#xf2;" horiz-adv-x="1120" 
d="M393 1423l125 39l207 -301l-78 -35zM158 470q0 -163 112.5 -285t283.5 -122t290 117t119 291t-118 291t-294 117v2q-168 -2 -280.5 -125t-112.5 -286zM1055 471q0 -211 -144.5 -351t-351.5 -140t-350 144t-143 347t143 348.5t348 145.5v2q209 -2 353.5 -143.5
t144.5 -352.5z" />
    <glyph glyph-name="oacute" unicode="&#xf3;" horiz-adv-x="1120" 
d="M600 1462l125 -39l-254 -297l-78 35zM158 470q0 -163 112.5 -285t283.5 -122t290 117t119 291t-118 291t-294 117v2q-168 -2 -280.5 -125t-112.5 -286zM1055 471q0 -211 -144.5 -351t-351.5 -140t-350 144t-143 347t143 348.5t348 145.5v2q209 -2 353.5 -143.5
t144.5 -352.5z" />
    <glyph glyph-name="ocircumflex" unicode="&#xf4;" horiz-adv-x="1120" 
d="M279 1204l282 217l283 -217l-78 -59l-205 158l-209 -158zM158 470q0 -163 112.5 -285t283.5 -122t290 117t119 291t-118 291t-294 117v2q-168 -2 -280.5 -125t-112.5 -286zM1055 471q0 -211 -144.5 -351t-351.5 -140t-350 144t-143 347t143 348.5t348 145.5v2
q209 -2 353.5 -143.5t144.5 -352.5z" />
    <glyph glyph-name="otilde" unicode="&#xf5;" horiz-adv-x="1120" 
d="M416 1282q-62 0 -90 -82l-62 45q20 47 61.5 88t99.5 41t130 -35q8 0 13 -3t10.5 -4.5t49.5 -19.5t74 -18q31 0 56.5 26t36.5 58l59 -43q-14 -57 -61.5 -96t-89.5 -39t-76.5 13.5t-58.5 22.5q-35 13 -78 30q-43 16 -74 16zM158 470q0 -163 112.5 -285t283.5 -122t290 117
t119 291t-118 291t-294 117v2q-168 -2 -280.5 -125t-112.5 -286zM1055 471q0 -211 -144.5 -351t-351.5 -140t-350 144t-143 347t143 348.5t348 145.5v2q209 -2 353.5 -143.5t144.5 -352.5z" />
    <glyph glyph-name="odieresis" unicode="&#xf6;" horiz-adv-x="1120" 
d="M834 1297q0 -34 -24 -58.5t-58 -24.5t-58 25t-24 59t24.5 57t57.5 23v2q35 -2 58.5 -25.5t23.5 -57.5zM451 1297q0 -34 -23.5 -58.5t-57.5 -24.5t-58.5 25t-24.5 59t24.5 57t57.5 23v2q35 -2 58.5 -25.5t23.5 -57.5zM158 470q0 -163 112.5 -285t283.5 -122t290 117
t119 291t-118 291t-294 117v2q-168 -2 -280.5 -125t-112.5 -286zM1055 471q0 -211 -144.5 -351t-351.5 -140t-350 144t-143 347t143 348.5t348 145.5v2q209 -2 353.5 -143.5t144.5 -352.5z" />
    <glyph glyph-name="Aacute" unicode="&#xf7;" 
 />
    <glyph glyph-name="OE" unicode="&#xf8;" horiz-adv-x="1120" 
d="M158 469q0 -46 18 -116t68 -132v2l563 572q-113 84 -267 84q-155 0 -268.5 -123t-113.5 -287zM553 63q172 0 291 117t119 283t-99 276v2l-567 -577q99 -91 235 -101h21zM176 160q-110 126 -110 320t143 339.5t335 145.5t333 -111v2l122 127l58 -59l-123 -121
q113 -135 121 -309v-23q0 -211 -143.5 -351t-354.5 -140h-49q-49 0 -133 35.5t-144 86.5l-125 -122l-55 55z" />
    <glyph glyph-name="ugrave" unicode="&#xf9;" horiz-adv-x="966" 
d="M317 1423l125 39l207 -301l-78 -35zM143 334v612h93v-534q0 -139 38.5 -244t208.5 -105t209 104.5t39 242.5v536h92v-579q0 -70 -7 -137.5t-51 -125.5t-112.5 -88t-118.5 -33t-101 0q-50 3 -118.5 32.5t-112.5 87.5t-51.5 126t-7.5 105z" />
    <glyph glyph-name="uacute" unicode="&#xfa;" horiz-adv-x="966" 
d="M524 1462l125 -39l-254 -297l-78 35zM143 334v612h93v-534q0 -139 38.5 -244t208.5 -105t209 104.5t39 242.5v536h92v-579q0 -70 -7 -137.5t-51 -125.5t-112.5 -88t-118.5 -33t-101 0q-50 3 -118.5 32.5t-112.5 87.5t-51.5 126t-7.5 105z" />
    <glyph glyph-name="ucircumflex" unicode="&#xfb;" horiz-adv-x="966" 
d="M201 1204l282 217l283 -217l-78 -59l-205 158l-209 -158zM143 334v612h93v-534q0 -139 38.5 -244t208.5 -105t209 104.5t39 242.5v536h92v-579q0 -70 -7 -137.5t-51 -125.5t-112.5 -88t-118.5 -33t-101 0q-50 3 -118.5 32.5t-112.5 87.5t-51.5 126t-7.5 105z" />
    <glyph glyph-name="udieresis" unicode="&#xfc;" horiz-adv-x="966" 
d="M758 1297q0 -34 -23.5 -58.5t-57.5 -24.5t-58.5 25t-24.5 59t24.5 57t57.5 23v2q35 -2 58.5 -25.5t23.5 -57.5zM375 1297q0 -34 -23.5 -58.5t-57.5 -24.5t-58.5 25t-24.5 59t24.5 57t57.5 23v2q35 -2 58.5 -25.5t23.5 -57.5zM143 334v612h93v-534q0 -139 38.5 -244
t208.5 -105t209 104.5t39 242.5v536h92v-579q0 -70 -7 -137.5t-51 -125.5t-112.5 -88t-118.5 -33t-101 0q-50 3 -118.5 32.5t-112.5 87.5t-51.5 126t-7.5 105z" />
    <glyph glyph-name="yacute" unicode="&#xfd;" 
 />
    <glyph glyph-name="glyph237" unicode="&#xfe;" horiz-adv-x="1146" 
d="M244 453q0 -168 103.5 -279t271.5 -111t269 120t101 281t-99 288t-274 127v2q-180 -2 -276 -131t-96 -297zM250 -553h-92v2243h92v-914h4q45 76 142 132.5t218 56.5q217 0 342 -147.5t125 -354.5t-125 -345t-338 -138q-109 0 -207 46t-157 136l-4 2v-717z" />
    <glyph glyph-name="Egrave" unicode="&#xff;" horiz-adv-x="942" 
d="M745 1297q0 -34 -23.5 -58.5t-57.5 -24.5t-58 25t-24 59t24.5 57t57.5 23v2q35 -2 58 -25.5t23 -57.5zM362 1297q0 -34 -23 -58.5t-57 -24.5t-58.5 25t-24.5 59t24.5 57t57.5 23v2q35 -2 58 -25.5t23 -57.5zM440 -16l-454 962h96l403 -856l363 856h94l-635 -1499h-94z
" />
    <glyph glyph-name="Abreve" unicode="&#x102;" 
 />
    <glyph glyph-name="abreve" unicode="&#x103;" 
 />
    <glyph glyph-name="Aogonek" unicode="&#x104;" 
 />
    <glyph glyph-name="aogonek" unicode="&#x105;" 
 />
    <glyph glyph-name="Cacute" unicode="&#x106;" 
 />
    <glyph glyph-name="cacute" unicode="&#x107;" 
 />
    <glyph glyph-name="Ccaron" unicode="&#x10c;" 
 />
    <glyph glyph-name="ccaron" unicode="&#x10d;" 
 />
    <glyph glyph-name="Dcaron" unicode="&#x10e;" 
 />
    <glyph glyph-name="dcaron" unicode="&#x10f;" 
 />
    <glyph glyph-name="Dcroat" unicode="&#x110;" 
 />
    <glyph glyph-name="dcroat" unicode="&#x111;" 
 />
    <glyph glyph-name="Eogonek" unicode="&#x118;" 
 />
    <glyph glyph-name="eogonek" unicode="&#x119;" 
 />
    <glyph glyph-name="Ecaron" unicode="&#x11a;" 
 />
    <glyph glyph-name="ecaron" unicode="&#x11b;" 
 />
    <glyph glyph-name="Gbreve" unicode="&#x11e;" 
 />
    <glyph glyph-name="gbreve" unicode="&#x11f;" 
 />
    <glyph glyph-name="Idotaccent" unicode="&#x130;" 
 />
    <glyph glyph-name="thorn" unicode="&#x131;" horiz-adv-x="479" 
d="M285 946v-946h-92v946h92z" />
    <glyph glyph-name="Lacute" unicode="&#x139;" 
 />
    <glyph glyph-name="lacute" unicode="&#x13a;" 
 />
    <glyph glyph-name="Lcaron" unicode="&#x13d;" 
 />
    <glyph glyph-name="lcaron" unicode="&#x13e;" 
 />
    <glyph glyph-name="Ldot" unicode="&#x13f;" 
 />
    <glyph glyph-name="ldot" unicode="&#x140;" 
 />
    <glyph glyph-name="glyph225" unicode="&#x141;" horiz-adv-x="669" 
d="M264 92h393v-92h-491v727l-166 -123v117l166 121v702h98v-651l262 192v-114l-262 -195v-684z" />
    <glyph glyph-name="glyph226" unicode="&#x142;" horiz-adv-x="468" 
d="M281 0h-93v739l-153 -118v112l153 119v838h93v-791l153 117v-111l-153 -119v-786z" />
    <glyph glyph-name="Nacute" unicode="&#x143;" 
 />
    <glyph glyph-name="nacute" unicode="&#x144;" 
 />
    <glyph glyph-name="Ncaron" unicode="&#x147;" 
 />
    <glyph glyph-name="ncaron" unicode="&#x148;" 
 />
    <glyph glyph-name="Ohungarumlaut" unicode="&#x150;" 
 />
    <glyph glyph-name="ohungarumlaut" unicode="&#x151;" 
 />
    <glyph glyph-name="fi" unicode="&#x152;" horiz-adv-x="2443" 
d="M172 770q0 -141 56.5 -271.5t155.5 -226.5t227 -149t266 -53t270.5 58t228.5 158q193 200 193 484q0 285 -202 492.5t-488 207.5v3q-285 -2 -496 -209t-211 -494zM1571 0v397h-4q-94 -197 -287 -307t-408 -110q-152 0 -297 58t-260 167t-178 256t-63 309
q0 330 239.5 561.5t567.5 231.5q213 0 402.5 -115t283.5 -307l4 2v401h737v-92h-639v-561h625v-92h-625v-707h639v-92h-737z" />
    <glyph glyph-name="fl" unicode="&#x153;" horiz-adv-x="1935" 
d="M1418 879q-144 0 -248 -98t-117 -230h725q-16 129 -116 228.5t-244 99.5zM158 470q0 -167 117.5 -287t283.5 -120t284 119t118 285t-114 289t-282 123v2q-176 -2 -291.5 -123t-115.5 -288zM1425 63q229 0 334 220l78 -45q-61 -127 -171 -192.5t-247 -65.5t-250.5 75.5
t-162.5 200.5q-59 -125 -181.5 -200.5t-261.5 -75.5q-207 0 -352 141t-145 350t147 351.5t354 142.5q139 0 260 -74t179 -201q49 131 160.5 203t248.5 72q219 0 337 -147t118 -353h-817v-25q0 -156 108.5 -266.5t263.5 -110.5z" />
    <glyph glyph-name="Racute" unicode="&#x154;" 
 />
    <glyph glyph-name="racute" unicode="&#x155;" 
 />
    <glyph glyph-name="Rcaron" unicode="&#x158;" 
 />
    <glyph glyph-name="rcaron" unicode="&#x159;" 
 />
    <glyph glyph-name="Sacute" unicode="&#x15a;" 
 />
    <glyph glyph-name="sacute" unicode="&#x15b;" 
 />
    <glyph glyph-name="Scedilla" unicode="&#x15e;" 
 />
    <glyph glyph-name="scedilla" unicode="&#x15f;" 
 />
    <glyph glyph-name="glyph227" unicode="&#x160;" horiz-adv-x="1114" 
d="M840 1962l-283 -219l-283 219l78 57l205 -155l209 155zM950 1346v2l-1 -1q0 -1 1 -1zM567 1470q-125 0 -208 -87t-83 -198t79 -178.5t200 -119.5l295 -152q176 -114 176 -308t-147.5 -320.5t-322.5 -126.5t-295 90t-173 239l86 41q49 -125 141.5 -202.5t238.5 -77.5
t260 105.5t114 258.5q0 104 -71 167t-124 89t-74.5 36.5t-42.5 21.5l-278 149q-160 95 -160 270q0 176 110.5 286t284.5 110q117 -1 219 -59t157 -157l-68 -57q-112 180 -314 180z" />
    <glyph glyph-name="glyph228" unicode="&#x161;" horiz-adv-x="768" 
d="M668 1364l-283 -219l-283 219l78 57l205 -155l209 155zM389 879h-6q-57 -2 -106.5 -45t-49.5 -110t54.5 -100.5t96.5 -49.5t54 -21t62 -23t122 -73.5t72 -185.5t-89 -210.5t-212 -80.5t-212 66.5t-118 180.5l90 31q27 -86 84.5 -140.5t149.5 -54.5t153.5 62.5t61.5 151
t-58 126t-153.5 70.5t-172.5 89t-77 164t78 173.5t180 65.5l33 -2q66 -10 124 -50t85 -98l-80 -41q-23 47 -67 76t-99 29z" />
    <glyph glyph-name="uni0162" unicode="&#x162;" 
 />
    <glyph glyph-name="uni0163" unicode="&#x163;" 
 />
    <glyph glyph-name="Tcaron" unicode="&#x164;" 
 />
    <glyph glyph-name="tcaron" unicode="&#x165;" 
 />
    <glyph glyph-name="Uring" unicode="&#x16e;" 
 />
    <glyph glyph-name="uring" unicode="&#x16f;" 
 />
    <glyph glyph-name="Uhungarumlaut" unicode="&#x170;" 
 />
    <glyph glyph-name="uhungarumlaut" unicode="&#x171;" 
 />
    <glyph glyph-name="Iacute" unicode="&#x178;" horiz-adv-x="1144" 
d="M846 1895q0 -34 -23.5 -58.5t-57.5 -24.5t-58.5 25t-24.5 59t24.5 57t57.5 23v2q35 -2 58.5 -25.5t23.5 -57.5zM463 1895q0 -34 -23.5 -58.5t-57.5 -24.5t-58.5 25t-24.5 59t24.5 57t57.5 23v2q35 -2 58.5 -25.5t23.5 -57.5zM621 0h-99v659l-514 885h109l454 -782
l455 782h109l-514 -885v-659z" />
    <glyph glyph-name="Zacute" unicode="&#x179;" 
 />
    <glyph glyph-name="zacute" unicode="&#x17a;" 
 />
    <glyph glyph-name="Zdotaccent" unicode="&#x17b;" 
 />
    <glyph glyph-name="zdotaccent" unicode="&#x17c;" 
 />
    <glyph glyph-name="Zcaron" unicode="&#x17d;" 
 />
    <glyph glyph-name="zcaron" unicode="&#x17e;" 
 />
    <glyph glyph-name="quotedblright" unicode="&#x192;" horiz-adv-x="1269" 
d="M307 -287q-60 -1 -99 13q-40 14 -48 16t-17 6l19 86q68 -29 121 -29t85 9.5t50 39.5q36 59 65 205l162 844h-141l18 92h140l81 439q8 32 21 89t39 97q47 73 153 92l39 2q80 0 133 -31l-18 -81q-62 20 -106 20q-102 0 -137.5 -81.5t-35.5 -133.5q-2 -10 -4 -21.5t-4 -21.5
l-67 -369h237l-18 -92h-236l-147 -778q-4 -16 -6 -33t-6 -39t-18 -89t-67 -159t-188 -92z" />
    <glyph glyph-name="uni02BA" unicode="&#x2ba;" horiz-adv-x="913" 
d="M635 1462l125 -39l-254 -297l-78 35zM362 1462l125 -39l-254 -297l-77 35z" />
    <glyph glyph-name="arrowright" unicode="&#x2c6;" horiz-adv-x="899" 
d="M305 1282q-62 0 -90 -82l-61 45q20 47 61 88t100 41t129 -35q9 0 14 -3t6 -4l26 -10q70 -28 102 -28q31 0 56.5 26t35.5 58l59 -43q-14 -57 -61 -96t-89 -39t-76.5 13.5t-58.5 22.5t-70.5 27.5t-82.5 18.5z" />
    <glyph glyph-name="glyph224" unicode="&#x2c7;" horiz-adv-x="872" 
d="M719 1364l-283 -219l-282 219l77 57l205 -155l209 155z" />
    <glyph glyph-name="house" unicode="&#x2c9;" horiz-adv-x="933" 
d="M154 1380h624v-92h-624v92z" />
    <glyph glyph-name="endash" unicode="&#x2d8;" horiz-adv-x="888" 
d="M154 1380h90q42 -127 155 -127t169.5 29t76.5 96l88 2q-12 -109 -97 -163t-185 -56h-13q-100 2 -185 56.5t-99 160.5v2z" />
    <glyph glyph-name="sfthyphen" unicode="&#x2d9;" horiz-adv-x="641" 
d="M403 1297q0 -34 -23.5 -58.5t-57.5 -24.5t-58 25t-24 59t24.5 57t57.5 23v2q35 -2 58 -25.5t23 -57.5z" />
    <glyph glyph-name="filledbox" unicode="&#x2da;" horiz-adv-x="663" 
d="M236 1283q0 -40 28.5 -68.5t68.5 -28.5t67.5 28.5t27.5 68.5t-27.5 67.5t-68.5 27.5v2q-39 -2 -67.5 -29.5t-28.5 -67.5zM510 1282q0 -74 -52 -126t-126 -52t-126 52t-52 126t52 126t126 52v2q74 -2 126 -54t52 -126z" />
    <glyph glyph-name="glyph223" unicode="&#x2db;" horiz-adv-x="657" 
d="M244 -206q0 -70 41 -100t96 -30t121 25l-21 -90q-64 -19 -106 -19q-84 0 -152.5 53.5t-68.5 133.5q0 132 149 229q2 2 5 3t5 3v2h88v-4q-13 -8 -53 -43q-104 -93 -104 -163z" />
    <glyph glyph-name="onehalf" unicode="&#x2dc;" horiz-adv-x="872" 
d="M154 1204l282 217l283 -217l-78 -59l-205 158l-209 -158z" />
    <glyph glyph-name="Gamma" unicode="&#x393;" 
 />
    <glyph glyph-name="Theta" unicode="&#x398;" 
 />
    <glyph glyph-name="exclamdown" unicode="&#x3a3;" 
 />
    <glyph glyph-name="Phi" unicode="&#x3a6;" 
 />
    <glyph glyph-name="Atilde" unicode="&#x3a9;" 
 />
    <glyph glyph-name="alpha" unicode="&#x3b1;" 
 />
    <glyph glyph-name="delta" unicode="&#x3b4;" 
 />
    <glyph glyph-name="epsilon" unicode="&#x3b5;" 
 />
    <glyph glyph-name="guillemotleft" unicode="&#x3c0;" 
 />
    <glyph glyph-name="sigma" unicode="&#x3c3;" 
 />
    <glyph glyph-name="tau" unicode="&#x3c4;" 
 />
    <glyph glyph-name="phi" unicode="&#x3c6;" 
 />
    <glyph glyph-name="glyph259" unicode="&#x2013;" horiz-adv-x="1024" 
d="M0 700h1024v-92h-1024v92z" />
    <glyph glyph-name="periodcentered" unicode="&#x2014;" horiz-adv-x="2048" 
d="M0 700h2048v-92h-2048v92z" />
    <glyph glyph-name="underscoredbl" unicode="&#x2017;" 
 />
    <glyph glyph-name="Acircumflex" unicode="&#x2018;" horiz-adv-x="530" 
d="M242 1073l-92 27l169 465l62 -23z" />
    <glyph glyph-name="Ecircumflex" unicode="&#x2019;" horiz-adv-x="530" 
d="M289 1565l92 -27l-170 -465l-61 23z" />
    <glyph glyph-name="Ugrave" unicode="&#x201a;" 
 />
    <glyph glyph-name="quotedblbase" unicode="&#x201c;" horiz-adv-x="798" 
d="M510 1073l-92 27l170 465l61 -23zM242 1073l-92 27l169 465l62 -23z" />
    <glyph glyph-name="perthousand" unicode="&#x201d;" horiz-adv-x="798" 
d="M557 1565l92 -27l-170 -465l-61 23zM289 1565l92 -27l-170 -465l-61 23z" />
    <glyph glyph-name="dotlessi" unicode="&#x201e;" horiz-adv-x="798" 
d="M557 152l92 -29l-170 -463l-61 23zM289 152l92 -29l-170 -463l-61 23z" />
    <glyph glyph-name="dagger" unicode="&#x2020;" horiz-adv-x="1269" 
d="M586 1544h98v-407h371v-93h-371v-1409h-98v1409h-371v93h371v407z" />
    <glyph glyph-name="Uacute" unicode="&#x2021;" horiz-adv-x="1269" 
d="M586 1544h98v-407h371v-93h-371v-876h371v-92h-371v-441h-98v441h-371v92h371v876h-371v93h371v407z" />
    <glyph glyph-name="glyph262" unicode="&#x2022;" horiz-adv-x="1269" 
d="M1022 771q0 -159 -109.5 -272.5t-275.5 -113.5t-276.5 113.5t-110.5 272.5t110.5 272.5t276.5 113.5v2q166 -2 275.5 -115.5t109.5 -272.5z" />
    <glyph glyph-name="fraction" unicode="&#x2026;" horiz-adv-x="2048" 
d="M1790 67.5q0 -34.5 -24.5 -58t-59.5 -23.5t-59.5 23.5t-24.5 58t24.5 59.5t59.5 25v2q35 -2 59.5 -27t24.5 -59.5zM1108 67.5q0 -34.5 -24.5 -58t-59.5 -23.5t-59.5 23.5t-24.5 58t24.5 59.5t59.5 25v2q35 -2 59.5 -27t24.5 -59.5zM426 67.5q0 -34.5 -24.5 -58
t-59.5 -23.5t-59.5 23.5t-24.5 58t24.5 59.5t59.5 25v2q35 -2 59.5 -27t24.5 -59.5z" />
    <glyph glyph-name="circumflex" unicode="&#x2030;" horiz-adv-x="2117" 
d="M143 1253q0 -90 68 -153.5t158 -63.5t157.5 63.5t67.5 153.5t-67.5 153.5t-157.5 63.5v3q-90 -2 -158 -66t-68 -154zM680 1252q0 -132 -91 -217t-220 -85t-220.5 85t-91.5 217t90.5 218t221.5 86v3q131 -2 221 -88.5t90 -218.5zM1524 287q0 -90 67.5 -153.5t157.5 -63.5
t157.5 63.5t67.5 153.5t-67.5 153.5t-157.5 63.5v2q-90 -2 -157.5 -65.5t-67.5 -153.5zM2060 286q0 -132 -91 -216t-220 -84t-220 84t-91 216t90 218t221 86v2q131 -2 221 -88t90 -218zM766 287q0 -90 67.5 -153.5t157.5 -63.5t158 63.5t68 153.5t-68 153.5t-158 63.5v2
q-90 -2 -157.5 -65.5t-67.5 -153.5zM1303 286q0 -132 -91.5 -216t-220.5 -84t-220 84t-91 216t90 218t221 86v2q131 -2 221.5 -88t90.5 -218zM1102 1579l67 -35l-917 -1579l-64 37z" />
    <glyph glyph-name="Igrave" unicode="&#x2039;" horiz-adv-x="567" 
d="M182 655l248 -290l-59 -56l-299 346l299 346l59 -55z" />
    <glyph glyph-name="Oacute" unicode="&#x203a;" horiz-adv-x="567" 
d="M137 365l248 290l-248 291l60 55l299 -346l-299 -346z" />
    <glyph glyph-name="exclamdbl" unicode="&#x203c;" 
 />
    <glyph glyph-name="uni207F" unicode="&#x207f;" 
 />
    <glyph glyph-name="franc" unicode="&#x20a3;" 
 />
    <glyph glyph-name="peseta" unicode="&#x20a7;" 
 />
    <glyph glyph-name="trademark" unicode="&#x2122;" horiz-adv-x="1925" 
d="M944 1544h148l280 -670h4l285 670h147v-862h-86v776h-8l-338 -776h-4l-334 776h-8v-776h-86v862zM774 1544v-86h-285v-776h-86v776h-284v86h655z" />
    <glyph glyph-name="arrowleft" unicode="&#x2190;" 
 />
    <glyph glyph-name="arrowup" unicode="&#x2191;" 
 />
    <glyph glyph-name="glyph257" unicode="&#x2192;" horiz-adv-x="1024" 
 />
    <glyph glyph-name="arrowdown" unicode="&#x2193;" 
 />
    <glyph glyph-name="arrowboth" unicode="&#x2194;" 
 />
    <glyph glyph-name="arrowupdn" unicode="&#x2195;" 
 />
    <glyph glyph-name="arrowupdnbse" unicode="&#x21a8;" 
 />
    <glyph glyph-name="questiondown" unicode="&#x2202;" 
 />
    <glyph glyph-name="quoteright" unicode="&#x2206;" 
 />
    <glyph glyph-name="florin" unicode="&#x220f;" 
 />
    <glyph glyph-name="minus" unicode="&#x2212;" 
 />
    <glyph glyph-name="Icircumflex" unicode="&#x2215;" horiz-adv-x="264" 
d="M557 1581l66 -37l-916 -1579l-65 37z" />
    <glyph glyph-name="Ucircumflex" unicode="&#x2219;" 
d="M401 522q0 -35 -24.5 -59.5t-59 -24.5t-59.5 24.5t-25 59.5t25 59.5t59 24.5v2q35 -2 59.5 -26.5t24.5 -59.5z" />
    <glyph glyph-name="quotedblleft" unicode="&#x221a;" 
 />
    <glyph glyph-name="yen" unicode="&#x221e;" 
 />
    <glyph glyph-name="orthogonal" unicode="&#x221f;" 
 />
    <glyph glyph-name="intersection" unicode="&#x2229;" 
 />
    <glyph glyph-name="guillemotright" unicode="&#x222b;" 
 />
    <glyph glyph-name="quoteleft" unicode="&#x2248;" 
 />
    <glyph glyph-name="AE" unicode="&#x2260;" 
 />
    <glyph glyph-name="equivalence" unicode="&#x2261;" 
 />
    <glyph glyph-name="ordfeminine" unicode="&#x2264;" 
 />
    <glyph glyph-name="ordmasculine" unicode="&#x2265;" 
 />
    <glyph glyph-name="glyph258" unicode="&#x2302;" 
 />
    <glyph glyph-name="revlogicalnot" unicode="&#x2310;" 
 />
    <glyph glyph-name="integraltp" unicode="&#x2320;" 
 />
    <glyph glyph-name="integralbt" unicode="&#x2321;" 
 />
    <glyph glyph-name="SF100000" unicode="&#x2500;" 
 />
    <glyph glyph-name="SF110000" unicode="&#x2502;" 
 />
    <glyph glyph-name="SF010000" unicode="&#x250c;" 
 />
    <glyph glyph-name="SF030000" unicode="&#x2510;" 
 />
    <glyph glyph-name="SF020000" unicode="&#x2514;" 
 />
    <glyph glyph-name="SF040000" unicode="&#x2518;" 
 />
    <glyph glyph-name="SF080000" unicode="&#x251c;" 
 />
    <glyph glyph-name="SF090000" unicode="&#x2524;" 
 />
    <glyph glyph-name="SF060000" unicode="&#x252c;" 
 />
    <glyph glyph-name="SF070000" unicode="&#x2534;" 
 />
    <glyph glyph-name="SF050000" unicode="&#x253c;" 
 />
    <glyph glyph-name="SF430000" unicode="&#x2550;" 
 />
    <glyph glyph-name="SF240000" unicode="&#x2551;" 
 />
    <glyph glyph-name="SF510000" unicode="&#x2552;" 
 />
    <glyph glyph-name="SF520000" unicode="&#x2553;" 
 />
    <glyph glyph-name="SF390000" unicode="&#x2554;" 
 />
    <glyph glyph-name="SF220000" unicode="&#x2555;" 
 />
    <glyph glyph-name="SF210000" unicode="&#x2556;" 
 />
    <glyph glyph-name="SF250000" unicode="&#x2557;" 
 />
    <glyph glyph-name="SF500000" unicode="&#x2558;" 
 />
    <glyph glyph-name="SF490000" unicode="&#x2559;" 
 />
    <glyph glyph-name="SF380000" unicode="&#x255a;" 
 />
    <glyph glyph-name="SF280000" unicode="&#x255b;" 
 />
    <glyph glyph-name="SF270000" unicode="&#x255c;" 
 />
    <glyph glyph-name="SF260000" unicode="&#x255d;" 
 />
    <glyph glyph-name="SF360000" unicode="&#x255e;" 
 />
    <glyph glyph-name="SF370000" unicode="&#x255f;" 
 />
    <glyph glyph-name="SF420000" unicode="&#x2560;" 
 />
    <glyph glyph-name="SF190000" unicode="&#x2561;" 
 />
    <glyph glyph-name="SF200000" unicode="&#x2562;" 
 />
    <glyph glyph-name="SF230000" unicode="&#x2563;" 
 />
    <glyph glyph-name="SF470000" unicode="&#x2564;" 
 />
    <glyph glyph-name="SF480000" unicode="&#x2565;" 
 />
    <glyph glyph-name="SF410000" unicode="&#x2566;" 
 />
    <glyph glyph-name="SF450000" unicode="&#x2567;" 
 />
    <glyph glyph-name="SF460000" unicode="&#x2568;" 
 />
    <glyph glyph-name="SF400000" unicode="&#x2569;" 
 />
    <glyph glyph-name="SF540000" unicode="&#x256a;" 
 />
    <glyph glyph-name="SF530000" unicode="&#x256b;" 
 />
    <glyph glyph-name="SF440000" unicode="&#x256c;" 
 />
    <glyph glyph-name="upblock" unicode="&#x2580;" 
 />
    <glyph glyph-name="dnblock" unicode="&#x2584;" 
 />
    <glyph glyph-name="block" unicode="&#x2588;" 
 />
    <glyph glyph-name="lfblock" unicode="&#x258c;" 
 />
    <glyph glyph-name="rtblock" unicode="&#x2590;" 
 />
    <glyph glyph-name="ltshade" unicode="&#x2591;" 
 />
    <glyph glyph-name="shade" unicode="&#x2592;" 
 />
    <glyph glyph-name="dkshade" unicode="&#x2593;" 
 />
    <glyph glyph-name="glyph261" unicode="&#x25a0;" horiz-adv-x="1024" 
 />
    <glyph glyph-name="filledrect" unicode="&#x25ac;" 
 />
    <glyph glyph-name="triagup" unicode="&#x25b2;" 
 />
    <glyph glyph-name="triagrt" unicode="&#x25ba;" 
 />
    <glyph glyph-name="triagdn" unicode="&#x25bc;" 
 />
    <glyph glyph-name="triaglf" unicode="&#x25c4;" 
 />
    <glyph glyph-name="Edieresis" unicode="&#x25ca;" 
 />
    <glyph glyph-name="circle" unicode="&#x25cb;" 
 />
    <glyph glyph-name="invbullet" unicode="&#x25d8;" 
 />
    <glyph glyph-name="invcircle" unicode="&#x25d9;" 
 />
    <glyph glyph-name="smileface" unicode="&#x263a;" 
 />
    <glyph glyph-name="invsmileface" unicode="&#x263b;" 
 />
    <glyph glyph-name="sun" unicode="&#x263c;" 
 />
    <glyph glyph-name="female" unicode="&#x2640;" 
 />
    <glyph glyph-name="male" unicode="&#x2642;" 
 />
    <glyph glyph-name="spade" unicode="&#x2660;" 
 />
    <glyph glyph-name="club" unicode="&#x2663;" 
 />
    <glyph glyph-name="heart" unicode="&#x2665;" 
 />
    <glyph glyph-name="diamond" unicode="&#x2666;" 
 />
    <glyph glyph-name="musicalnote" unicode="&#x266a;" 
 />
    <glyph glyph-name="musicalnotedbl" unicode="&#x266b;" 
 />
    <glyph glyph-name="Scaron" unicode="&#xf000;" 
 />
    <glyph glyph-name="Ocircumflex" unicode="&#xf001;" horiz-adv-x="972" 
d="M817 1259.5q0 -34.5 -24.5 -59t-59.5 -24.5t-59.5 24.5t-24.5 59t24.5 59t59.5 24.5v3q35 -2 59.5 -27t24.5 -59.5zM778 946v-946h-92v946h92zM412 1628q-96 0 -129 -70t-33 -95v-517h237v-86h-237v-860h-92v860h-105v86h105v424q0 165 35 225q69 119 213 119
q46 0 81 -14v-82l-24 2q-24 8 -51 8z" />
    <glyph glyph-name="Ograve" unicode="&#xf002;" horiz-adv-x="899" 
d="M741 1690v-1690h-92v1690h92zM412 1628q-96 0 -129 -70t-33 -95v-517h237v-86h-237v-860h-92v860h-105v86h105v424q0 165 35 225q69 119 213 119q46 0 81 -14v-82l-24 2q-24 8 -51 8z" />
    <glyph glyph-name="degree" horiz-adv-x="819" 
d="M188 1254q0 -94 63 -157t157 -63t158.5 63.5t64.5 156.5t-64.5 158t-158.5 65v2q-92 -2 -156 -66.5t-64 -158.5zM409.5 948q-126.5 0 -217 90t-90.5 217q-2 127 89.5 217.5t218.5 90.5t216.5 -90.5t89.5 -218.5t-90 -216q-90 -90 -216.5 -90z" />
    <glyph glyph-name="glyph135" horiz-adv-x="1269" 
d="M1022 771q0 -159 -109.5 -272.5t-275.5 -113.5t-276.5 113.5t-110.5 272.5t110.5 272.5t276.5 113.5v2q166 -2 275.5 -115.5t109.5 -272.5z" />
    <glyph glyph-name="daggerdbl" horiz-adv-x="1024" 
d="M0 700h1024v-92h-1024v92z" />
    </font>
</defs>
</svg>
